<svg width="40" height="40" viewBox="0 0 40 40" fill="none" xmlns="http://www.w3.org/2000/svg">
<rect width="40" height="40" rx="20" fill="#F7F7F7"/>
<path d="M20 8.75C21.4774 8.75 22.9403 9.04099 24.3052 9.60636C25.6701 10.1717 26.9103 11.0004 27.955 12.045C28.9996 13.0897 29.8283 14.3299 30.3936 15.6948C30.959 17.0597 31.25 18.5226 31.25 20C31.25 21.4774 30.959 22.9403 30.3936 24.3052C29.8283 25.6701 28.9996 26.9103 27.955 27.955C26.9103 28.9996 25.6701 29.8283 24.3052 30.3936C22.9403 30.959 21.4774 31.25 20 31.25C17.0163 31.25 14.1548 30.0647 12.045 27.955C9.93526 25.8452 8.75 22.9837 8.75 20C8.75 17.0163 9.93526 14.1548 12.045 12.045C14.1548 9.93526 17.0163 8.75 20 8.75ZM20 10.25C17.4141 10.25 14.9342 11.2772 13.1057 13.1057C11.2772 14.9342 10.25 17.4141 10.25 20C10.25 22.5859 11.2772 25.0658 13.1057 26.8943C14.9342 28.7228 17.4141 29.75 20 29.75C22.5859 29.75 25.0658 28.7228 26.8943 26.8943C28.7228 25.0658 29.75 22.5859 29.75 20C29.75 17.4141 28.7228 14.9342 26.8943 13.1057C25.0658 11.2772 22.5859 10.25 20 10.25ZM24.7212 16.4713C25.0133 16.1792 25.4867 16.1792 25.7787 16.4713C26.0708 16.7633 26.0708 17.2367 25.7787 17.5287L19.5392 23.7683C18.7582 24.5493 17.4918 24.5493 16.7108 23.7683L14.2212 21.2787C13.9292 20.9867 13.9292 20.5133 14.2213 20.2213C14.5133 19.9292 14.9867 19.9292 15.2787 20.2212L16.7108 21.6533C17.4918 22.4343 18.7582 22.4343 19.5392 21.6533L24.7212 16.4713Z" fill="#222222"/>
</svg>
