<svg width="32" height="32" viewBox="0 0 32 32" fill="none" xmlns="http://www.w3.org/2000/svg">
<rect width="32" height="32" rx="16" fill="white"/>
<path fill-rule="evenodd" clip-rule="evenodd" d="M9.46967 15.4697C9.17678 15.7626 9.17678 16.2374 9.46967 16.5303L13.4697 20.5303C13.7626 20.8232 14.2374 20.8232 14.5303 20.5303C14.8232 20.2374 14.8232 19.7626 14.5303 19.4697L11.8107 16.75L22 16.75C22.4142 16.75 22.75 16.4142 22.75 16C22.75 15.5858 22.4142 15.25 22 15.25L11.8107 15.25L14.5303 12.5303C14.8232 12.2374 14.8232 11.7626 14.5303 11.4697C14.2374 11.1768 13.7626 11.1768 13.4697 11.4697L9.46967 15.4697Z" fill="#28303F"/>
</svg>
