<svg width="32" height="32" viewBox="0 0 32 32" fill="none" xmlns="http://www.w3.org/2000/svg">
<rect width="32" height="32" rx="16" fill="#F7F7F7"/>
<g clip-path="url(#clip0_0_563)">
<path d="M9.25 16.8123C9.25 16.7545 9.25 16.7253 9.2515 16.7013C9.26332 16.5195 9.34083 16.3483 9.46959 16.2196C9.59835 16.0908 9.76955 16.0133 9.95125 16.0015C9.976 16 10.0038 16 10.0623 16H21.9377C21.9955 16 22.024 16 22.0488 16.0015C22.2305 16.0133 22.4017 16.0908 22.5304 16.2196C22.6592 16.3483 22.7367 16.5195 22.7485 16.7013C22.75 16.7253 22.75 16.7538 22.75 16.8123C22.75 17.1085 22.75 17.257 22.7395 17.4235C22.5828 19.8887 20.4873 22.0652 18.0295 22.3135C17.8638 22.3307 17.767 22.3345 17.5735 22.342C17.0492 22.3627 16.5247 22.3737 16 22.375C15.5125 22.375 14.977 22.3622 14.4265 22.342C14.233 22.3345 14.1363 22.3308 13.9713 22.3143C11.5127 22.0653 9.41725 19.8887 9.26125 17.4235C9.25 17.257 9.25 17.1085 9.25 16.8123Z" stroke="#28303F" stroke-width="1.5"/>
<path d="M11.5 22L10.75 23.5M20.5 22L21.25 23.5M8.5 16H23.5" stroke="#28303F" stroke-width="1.5" stroke-linecap="round"/>
<path d="M8.6875 16.75C8.6875 16.8992 8.74676 17.0423 8.85225 17.1477C8.95774 17.2532 9.10082 17.3125 9.25 17.3125C9.39918 17.3125 9.54226 17.2532 9.64775 17.1477C9.75324 17.0423 9.8125 16.8992 9.8125 16.75H8.6875ZM11.7595 13.5565L11.236 13.7628C11.2637 13.8328 11.3052 13.8965 11.3579 13.9502C11.4107 14.0039 11.4737 14.0464 11.5432 14.0753C11.6128 14.1042 11.6874 14.1188 11.7627 14.1183C11.8379 14.1179 11.9124 14.1023 11.9815 14.0725L11.7595 13.5565ZM16.2295 11.6313L16.4523 12.1487C16.5865 12.0909 16.693 11.9831 16.7491 11.8482C16.8052 11.7132 16.8066 11.5617 16.753 11.4258L16.2295 11.6313ZM9.8125 16.75V10.2888H8.6875V16.75H9.8125ZM11.0388 9.0625C11.5405 9.0625 11.9913 9.36775 12.1773 9.8335L13.222 9.415C13.0476 8.97874 12.7464 8.6055 12.3574 8.34202C11.9684 8.07853 11.5093 7.93763 11.0395 7.9375L11.0388 9.0625ZM9.8125 10.2888C9.8125 9.6115 10.3615 9.0625 11.0388 9.0625L11.0395 7.9375C10.4159 7.9375 9.81711 8.18522 9.37617 8.62617C8.93522 9.06711 8.6875 9.66516 8.6875 10.2888H9.8125ZM12.1773 9.8335L12.4623 10.5445L13.5063 10.1267L13.222 9.415L12.1773 9.8335ZM12.2823 13.3503C12.0937 12.8694 12.0974 12.3344 12.2928 11.8562L11.2503 11.4325C10.946 12.1785 10.9414 13.0129 11.236 13.7628L12.2823 13.3503ZM16.0075 11.1153L11.5368 13.0398L11.9815 14.0725L16.4515 12.148L16.0075 11.1153ZM14.7115 10.801C15.178 11.0005 15.5253 11.3777 15.7068 11.8375L16.753 11.4258C16.6101 11.0569 16.395 10.7194 16.1205 10.4346C15.8459 10.1497 15.5174 9.92243 15.154 9.766L14.7115 10.801ZM12.2928 11.8562C12.469 11.4135 12.803 11.0525 13.2303 10.8415L12.7383 9.8305C12.0615 10.1625 11.5314 10.7331 11.2503 11.4325L12.2928 11.8562ZM13.2303 10.8415C13.4596 10.7282 13.7108 10.666 13.9665 10.6592C14.2222 10.6523 14.4764 10.7002 14.7115 10.801L15.154 9.766C14.7705 9.60197 14.3561 9.5235 13.9392 9.53451C13.5222 9.54551 13.1126 9.64648 12.7383 9.8305L13.2303 10.8415Z" fill="#28303F"/>
</g>
<defs>
<clipPath id="clip0_0_563">
<rect width="18" height="18" fill="white" transform="translate(7 7)"/>
</clipPath>
</defs>
</svg>
