<svg width="32" height="32" viewBox="0 0 32 32" fill="none" xmlns="http://www.w3.org/2000/svg">
<rect width="32" height="32" rx="16" fill="#F7F7F7"/>
<path d="M8.5 21.25V16.75C8.5 16.4125 8.56875 16.1062 8.70625 15.8312C8.84375 15.5562 9.025 15.3125 9.25 15.1V13C9.25 12.375 9.46875 11.8437 9.90625 11.4062C10.3437 10.9688 10.875 10.75 11.5 10.75H14.5C14.7875 10.75 15.0562 10.8032 15.3062 10.9097C15.5562 11.0162 15.7875 11.163 16 11.35C16.2125 11.1625 16.4437 11.0157 16.6937 10.9097C16.9437 10.8037 17.2125 10.7505 17.5 10.75H20.5C21.125 10.75 21.6562 10.9688 22.0937 11.4062C22.5312 11.8437 22.75 12.375 22.75 13V15.1C22.975 15.3125 23.1562 15.5562 23.2937 15.8312C23.4312 16.1062 23.5 16.4125 23.5 16.75V21.25H22V19.75H10V21.25H8.5ZM16.75 14.5H21.25V13C21.25 12.7875 21.178 12.6095 21.034 12.466C20.89 12.3225 20.712 12.2505 20.5 12.25H17.5C17.2875 12.25 17.1095 12.322 16.966 12.466C16.8225 12.61 16.7505 12.788 16.75 13V14.5ZM10.75 14.5H15.25V13C15.25 12.7875 15.178 12.6095 15.034 12.466C14.89 12.3225 14.712 12.2505 14.5 12.25H11.5C11.2875 12.25 11.1095 12.322 10.966 12.466C10.8225 12.61 10.7505 12.788 10.75 13V14.5ZM10 18.25H22V16.75C22 16.5375 21.928 16.3595 21.784 16.216C21.64 16.0725 21.462 16.0005 21.25 16H10.75C10.5375 16 10.3595 16.072 10.216 16.216C10.0725 16.36 10.0005 16.538 10 16.75V18.25Z" fill="#28303F"/>
</svg>
