<svg width="60" height="61" viewBox="0 0 60 61" fill="none" xmlns="http://www.w3.org/2000/svg">
<rect y="0.5" width="60" height="60" rx="30" fill="white"/>
<rect x="0.5" y="1" width="59" height="59" rx="29.5" stroke="#28303F" stroke-opacity="0.1"/>
<path d="M32.7 20.5C34.38 20.5 35.22 20.5 35.862 20.84C36.4313 21.1435 36.8902 21.6191 37.173 22.199C37.5 22.864 37.5 23.735 37.5 25.478V35.522C37.5 37.265 37.5 38.136 37.173 38.802C36.8902 39.3819 36.4313 39.8575 35.862 40.161C35.22 40.5 34.38 40.5 32.7 40.5H27.3C25.62 40.5 24.78 40.5 24.138 40.16C23.5687 39.8565 23.1098 39.3809 22.827 38.801C22.5 38.136 22.5 37.265 22.5 35.522V25.478C22.5 23.735 22.5 22.864 22.827 22.198C23.11 21.6185 23.5688 21.1432 24.138 20.84C24.78 20.5 25.62 20.5 27.3 20.5H32.7Z" stroke="#28303F" stroke-width="1.5" stroke-linecap="round" stroke-linejoin="round"/>
<path d="M27.5 39.5V34C27.5 33.4696 27.7107 32.9609 28.0858 32.5858C28.4609 32.2107 28.9696 32 29.5 32H30.5C31.0304 32 31.5391 32.2107 31.9142 32.5858C32.2893 32.9609 32.5 33.4696 32.5 34V39.5M28 24.5H26M28 28.5H26M34 24.5H32M34 28.5H32" stroke="#28303F" stroke-width="1.5" stroke-linecap="round" stroke-linejoin="round"/>
</svg>
