<svg width="28" height="29" viewBox="0 0 28 29" fill="none" xmlns="http://www.w3.org/2000/svg">
<rect y="0.5" width="28" height="28" rx="14" fill="#F7F7F7"/>
<path d="M16 15.5C16 16.6046 15.1046 17.5 14 17.5C12.8954 17.5 12 16.6046 12 15.5C12 14.3954 12.8954 13.5 14 13.5C15.1046 13.5 16 14.3954 16 15.5Z" stroke="#28303F"/>
<circle cx="14.0002" cy="11.1667" r="0.666667" fill="#28303F"/>
<path d="M20 16.8335V14.1668C20 12.3259 18.5076 10.8335 16.6667 10.8335H16.5827C16.2866 9.68334 15.2426 8.8335 14 8.8335C12.7574 8.8335 11.7134 9.68334 11.4173 10.8335H11.3333C9.49238 10.8335 8 12.3259 8 14.1668V16.8335C8 18.6744 9.49238 20.1668 11.3333 20.1668H16.6667C18.5076 20.1668 20 18.6744 20 16.8335Z" stroke="#28303F" stroke-linejoin="round"/>
</svg>
