<svg width="40" height="40" viewBox="0 0 40 40" fill="none" xmlns="http://www.w3.org/2000/svg">
<rect width="40" height="40" rx="20" fill="#F7F7F7"/>
<path d="M24.3333 9V13.1058H21.4667C21.5533 14.0638 21.9133 14.967 22.48 15.6924L22.6133 15.8429L21.6133 16.753C20.7827 15.78 20.2698 14.5644 20.1467 13.2768C19.5933 13.5369 19.2667 14.0569 19.2267 14.7823V17.8342L21.9867 20.5851C22.5528 21.1466 22.9071 21.8956 22.9867 22.6995L22.9933 22.8706L23 23.0417V28.9471C23.0003 29.4491 22.8213 29.9338 22.497 30.3096C22.1727 30.6853 21.7255 30.9261 21.24 30.9863L21.12 30.9932L20.98 31L12.98 30.911C12.4732 30.9068 11.9868 30.7052 11.6193 30.3469C11.2517 29.9887 11.0304 29.5006 11 28.9813V28.8582V23.1785C10.9998 22.2995 11.3293 21.4541 11.92 20.8177L12.0467 20.6946L15 17.8274V15.056L12.3267 12.7294L12.34 12.2504C12.3807 11.3995 12.7291 10.5948 13.3173 9.99361C13.9054 9.39247 14.6908 9.03817 15.52 9H15.6667H24.3333ZM20.98 26.5795C19.4634 26.5809 18.0029 25.9915 16.8933 24.9303L16.74 24.7729C16.1743 24.1896 15.4712 23.7664 14.699 23.5446C13.9268 23.3227 13.1118 23.3098 12.3333 23.507V28.8582C12.3333 29.2072 12.5867 29.4946 12.9133 29.5425H13L20.9733 29.6314H21.06C21.2133 29.6183 21.3574 29.5512 21.468 29.4414C21.5785 29.3317 21.6487 29.186 21.6667 29.0292L21.6733 28.9471V26.5384C21.4467 26.5658 21.2133 26.5795 20.9867 26.5795H20.98ZM20.1133 10.3686H15.6667C15.2171 10.3682 14.7804 10.5232 14.4273 10.8088C14.0741 11.0943 13.8249 11.4937 13.72 11.9425L13.6933 12.0656L13.6867 12.1204L16.1333 14.2417H17.9467L17.96 14.1733C18.0602 13.6128 18.3172 13.0943 18.6995 12.6812C19.0819 12.2681 19.5731 11.9781 20.1133 11.8467V10.3686ZM28.3333 11.7372C28.5101 11.7372 28.6797 11.8093 28.8047 11.9376C28.9298 12.0659 29 12.24 29 12.4215C29 12.6029 28.9298 12.777 28.8047 12.9053C28.6797 13.0337 28.5101 13.1058 28.3333 13.1058C28.1565 13.1058 27.987 13.0337 27.8619 12.9053C27.7369 12.777 27.6667 12.6029 27.6667 12.4215C27.6667 12.24 27.7369 12.0659 27.8619 11.9376C27.987 11.8093 28.1565 11.7372 28.3333 11.7372ZM26.3333 10.3686C26.5101 10.3686 26.6797 10.4407 26.8047 10.569C26.9298 10.6973 27 10.8714 27 11.0529C27 11.2344 26.9298 11.4084 26.8047 11.5367C26.6797 11.6651 26.5101 11.7372 26.3333 11.7372C26.1565 11.7372 25.987 11.6651 25.8619 11.5367C25.7369 11.4084 25.6667 11.2344 25.6667 11.0529C25.6667 10.8714 25.7369 10.6973 25.8619 10.569C25.987 10.4407 26.1565 10.3686 26.3333 10.3686ZM23 10.3686H21.4467V11.7372H23V10.3686ZM28.3333 9C28.5101 9 28.6797 9.07209 28.8047 9.20042C28.9298 9.32875 29 9.50281 29 9.68429C29 9.86578 28.9298 10.0398 28.8047 10.1682C28.6797 10.2965 28.5101 10.3686 28.3333 10.3686C28.1565 10.3686 27.987 10.2965 27.8619 10.1682C27.7369 10.0398 27.6667 9.86578 27.6667 9.68429C27.6667 9.50281 27.7369 9.32875 27.8619 9.20042C27.987 9.07209 28.1565 9 28.3333 9ZM21.6667 23.0417C21.6656 22.5362 21.4828 22.0489 21.1533 21.6731L21.06 21.5705L17.8867 18.4159V15.6103H16.3333V18.4159L12.96 21.6868C12.8466 21.7953 12.746 21.917 12.66 22.0495C13.536 21.9336 14.426 22.017 15.2671 22.2937C16.1081 22.5704 16.8796 23.0337 17.5267 23.6507L17.68 23.8081C18.1958 24.3364 18.8253 24.7331 19.5177 24.966C20.2102 25.199 20.9463 25.2618 21.6667 25.1493V23.0417Z" fill="#222222"/>
</svg>
