<svg width="52" height="53" viewBox="0 0 52 53" fill="none" xmlns="http://www.w3.org/2000/svg">
<rect y="0.5" width="52" height="52" rx="26" fill="white"/>
<rect x="0.5" y="1" width="51" height="51" rx="25.5" stroke="#28303F" stroke-opacity="0.1"/>
<path fill-rule="evenodd" clip-rule="evenodd" d="M21.25 19.5945L21.25 17.5C21.25 17.0858 21.5858 16.75 22 16.75C22.4142 16.75 22.75 17.0858 22.75 17.5L22.75 19.5945C24.0439 19.9275 25 21.1021 25 22.5V24.5C25 26.1569 23.6569 27.5 22 27.5C20.3431 27.5 19 26.1569 19 24.5V22.5C19 21.1021 19.9561 19.9275 21.25 19.5945ZM29.25 22.5C29.25 22.9142 29.5858 23.25 30 23.25C30.4142 23.25 30.75 22.9142 30.75 22.5V17.5C30.75 17.0858 30.4142 16.75 30 16.75C29.5858 16.75 29.25 17.0858 29.25 17.5V22.5ZM21.25 35.5C21.25 35.9142 21.5858 36.25 22 36.25C22.4142 36.25 22.75 35.9142 22.75 35.5L22.75 30.5C22.75 30.0858 22.4142 29.75 22 29.75C21.5858 29.75 21.25 30.0858 21.25 30.5L21.25 35.5ZM27 28.5V30.5C27 31.8979 27.9561 33.0725 29.25 33.4055V35.5C29.25 35.9142 29.5858 36.25 30 36.25C30.4142 36.25 30.75 35.9142 30.75 35.5V33.4055C32.0439 33.0725 33 31.8979 33 30.5V28.5C33 26.8431 31.6569 25.5 30 25.5C28.3431 25.5 27 26.8431 27 28.5Z" fill="#28303F"/>
</svg>
