<svg width="40" height="40" viewBox="0 0 40 40" fill="none" xmlns="http://www.w3.org/2000/svg">
<rect width="40" height="40" rx="20" fill="#F7F7F7"/>
<path d="M31.2125 10.8574C31.1264 10.4698 30.8902 10.1322 30.5556 9.9185C30.221 9.70481 29.8153 9.63248 29.4275 9.71736L23.7425 10.9849L16.2425 9.48486L9.9275 10.8874C9.59346 10.9595 9.29428 11.1441 9.07997 11.4103C8.86565 11.6764 8.74918 12.0081 8.75 12.3499V28.8124C8.75 28.9234 8.76258 29.0341 8.7875 29.1424C8.87361 29.5299 9.10984 29.8675 9.44443 30.0812C9.77902 30.2949 10.1847 30.3672 10.5725 30.2824L16.2575 29.0149L23.7575 30.5149L30.0725 29.1124C30.4065 29.0402 30.7057 28.8557 30.92 28.5895C31.1344 28.3233 31.2508 27.9916 31.25 27.6499V11.1874C31.2498 11.0763 31.2372 10.9656 31.2125 10.8574ZM17 11.1649L23 12.3649V28.8349L17 27.6349V11.1649ZM10.25 28.8124V12.3499L15.5 11.1874V27.6499L10.25 28.8124ZM29.75 27.6499L24.5 28.8124V12.3499L29.75 11.1874V27.6499Z" fill="#222222"/>
</svg>
