<svg width="40" height="40" viewBox="0 0 40 40" fill="none" xmlns="http://www.w3.org/2000/svg">
<rect width="40" height="40" rx="20" fill="#F7F7F7"/>
<path d="M27.1875 11.0625C27.95 11.0625 28.6813 11.3522 29.2204 11.868C29.7596 12.3837 30.0625 13.0832 30.0625 13.8125V23.4375C30.0625 24.1668 29.7596 24.8663 29.2204 25.382C28.6813 25.8978 27.95 26.1875 27.1875 26.1875H22.645L20 29.2812L17.355 26.1875H12.8125C12.05 26.1875 11.3187 25.8978 10.7796 25.382C10.2404 24.8663 9.9375 24.1668 9.9375 23.4375V13.8125C9.9375 13.0832 10.2404 12.3837 10.7796 11.868C11.3187 11.3522 12.05 11.0625 12.8125 11.0625H27.1875Z" stroke="#222222" stroke-width="2"/>
</svg>
