<svg width="40" height="40" viewBox="0 0 40 40" fill="none" xmlns="http://www.w3.org/2000/svg">
<rect width="40" height="40" rx="20" fill="#F7F7F7"/>
<path d="M29 27V25.3541C29 24.5363 28.5021 23.8008 27.7428 23.4971L25.7086 22.6835C24.7429 22.2971 23.6422 22.7156 23.177 23.646L23 24C23 24 20.5 23.5 18.5 21.5C16.5 19.5 16 17 16 17L16.354 16.823C17.2844 16.3578 17.7029 15.2571 17.3165 14.2914L16.5029 12.2572C16.1992 11.4979 15.4637 11 14.6459 11H13C11.8954 11 11 11.8954 11 13C11 21.8366 18.1634 29 27 29C28.1046 29 29 28.1046 29 27Z" stroke="#28303F" stroke-width="1.5" stroke-linejoin="round"/>
</svg>
