<svg width="40" height="40" viewBox="0 0 40 40" fill="none" xmlns="http://www.w3.org/2000/svg">
<rect width="40" height="40" rx="20" fill="#28303F"/>
<path d="M29.41 19.58L20.41 10.58C20.05 10.22 19.55 10 19 10H12C10.9 10 10 10.9 10 12V19C10 19.55 10.22 20.05 10.59 20.42L19.59 29.42C19.95 29.78 20.45 30 21 30C21.55 30 22.05 29.78 22.41 29.41L29.41 22.41C29.78 22.05 30 21.55 30 21C30 20.45 29.77 19.94 29.41 19.58ZM21 28.01L12 19V12H19V11.99L28 20.99L21 28.01Z" fill="white"/>
<path d="M14.5 16C15.3284 16 16 15.3284 16 14.5C16 13.6716 15.3284 13 14.5 13C13.6716 13 13 13.6716 13 14.5C13 15.3284 13.6716 16 14.5 16Z" fill="white"/>
</svg>
