<svg width="292" height="51" viewBox="0 0 292 51" fill="none" xmlns="http://www.w3.org/2000/svg">
<path d="M0 35C0 33.8954 0.895431 33 2 33H5C6.10457 33 7 33.8954 7 35V51H0V35Z" fill="url(#paint0_linear_0_2394)"/>
<path d="M0 35C0 33.8954 0.895431 33 2 33H5C6.10457 33 7 33.8954 7 35V51H0V35Z" fill="url(#paint1_linear_0_2394)" fill-opacity="0.2"/>
<path d="M11 26C11 24.8954 11.8954 24 13 24H16C17.1046 24 18 24.8954 18 26V51H11V26Z" fill="url(#paint2_linear_0_2394)"/>
<path d="M11 26C11 24.8954 11.8954 24 13 24H16C17.1046 24 18 24.8954 18 26V51H11V26Z" fill="url(#paint3_linear_0_2394)" fill-opacity="0.2"/>
<path d="M22 17C22 15.8954 22.8954 15 24 15H27C28.1046 15 29 15.8954 29 17V51H22V17Z" fill="url(#paint4_linear_0_2394)"/>
<path d="M22 17C22 15.8954 22.8954 15 24 15H27C28.1046 15 29 15.8954 29 17V51H22V17Z" fill="url(#paint5_linear_0_2394)" fill-opacity="0.2"/>
<path d="M33 28C33 26.8954 33.8954 26 35 26H37C38.1046 26 39 26.8954 39 28V51H33V28Z" fill="url(#paint6_linear_0_2394)"/>
<path d="M33 28C33 26.8954 33.8954 26 35 26H37C38.1046 26 39 26.8954 39 28V51H33V28Z" fill="url(#paint7_linear_0_2394)" fill-opacity="0.2"/>
<path d="M43 13C43 11.8954 43.8954 11 45 11H47C48.1046 11 49 11.8954 49 13V51H43V13Z" fill="url(#paint8_linear_0_2394)"/>
<path d="M43 13C43 11.8954 43.8954 11 45 11H47C48.1046 11 49 11.8954 49 13V51H43V13Z" fill="url(#paint9_linear_0_2394)" fill-opacity="0.2"/>
<path d="M53 26C53 24.8954 53.8954 24 55 24H57C58.1046 24 59 24.8954 59 26V51H53V26Z" fill="url(#paint10_linear_0_2394)"/>
<path d="M53 26C53 24.8954 53.8954 24 55 24H57C58.1046 24 59 24.8954 59 26V51H53V26Z" fill="url(#paint11_linear_0_2394)" fill-opacity="0.2"/>
<path d="M63 6C63 4.89543 63.8954 4 65 4H67C68.1046 4 69 4.89543 69 6V51H63V6Z" fill="url(#paint12_linear_0_2394)"/>
<path d="M63 6C63 4.89543 63.8954 4 65 4H67C68.1046 4 69 4.89543 69 6V51H63V6Z" fill="url(#paint13_linear_0_2394)" fill-opacity="0.2"/>
<path d="M73 17C73 15.8954 73.8954 15 75 15H77C78.1046 15 79 15.8954 79 17V51H73V17Z" fill="url(#paint14_linear_0_2394)"/>
<path d="M73 17C73 15.8954 73.8954 15 75 15H77C78.1046 15 79 15.8954 79 17V51H73V17Z" fill="url(#paint15_linear_0_2394)" fill-opacity="0.2"/>
<path d="M83 32C83 30.8954 83.8954 30 85 30H87C88.1046 30 89 30.8954 89 32V51H83V32Z" fill="url(#paint16_linear_0_2394)"/>
<path d="M83 32C83 30.8954 83.8954 30 85 30H87C88.1046 30 89 30.8954 89 32V51H83V32Z" fill="url(#paint17_linear_0_2394)" fill-opacity="0.2"/>
<path d="M93 2C93 0.89543 93.8954 0 95 0H98C99.1046 0 100 0.895431 100 2V51H93V2Z" fill="url(#paint18_linear_0_2394)"/>
<path d="M93 2C93 0.89543 93.8954 0 95 0H98C99.1046 0 100 0.895431 100 2V51H93V2Z" fill="url(#paint19_linear_0_2394)" fill-opacity="0.2"/>
<path d="M104 13C104 11.8954 104.895 11 106 11H109C110.105 11 111 11.8954 111 13V51H104V13Z" fill="url(#paint20_linear_0_2394)"/>
<path d="M104 13C104 11.8954 104.895 11 106 11H109C110.105 11 111 11.8954 111 13V51H104V13Z" fill="url(#paint21_linear_0_2394)" fill-opacity="0.2"/>
<path d="M115 2C115 0.89543 115.895 0 117 0H120C121.105 0 122 0.895431 122 2V51H115V2Z" fill="url(#paint22_linear_0_2394)"/>
<path d="M115 2C115 0.89543 115.895 0 117 0H120C121.105 0 122 0.895431 122 2V51H115V2Z" fill="url(#paint23_linear_0_2394)" fill-opacity="0.2"/>
<path d="M126 22C126 20.8954 126.895 20 128 20H131C132.105 20 133 20.8954 133 22V51H126V22Z" fill="url(#paint24_linear_0_2394)"/>
<path d="M126 22C126 20.8954 126.895 20 128 20H131C132.105 20 133 20.8954 133 22V51H126V22Z" fill="url(#paint25_linear_0_2394)" fill-opacity="0.2"/>
<path d="M137 2C137 0.89543 137.895 0 139 0H142C143.105 0 144 0.895431 144 2V51H137V2Z" fill="url(#paint26_linear_0_2394)"/>
<path d="M137 2C137 0.89543 137.895 0 139 0H142C143.105 0 144 0.895431 144 2V51H137V2Z" fill="url(#paint27_linear_0_2394)" fill-opacity="0.2"/>
<path d="M148 19C148 17.8954 148.895 17 150 17H153C154.105 17 155 17.8954 155 19V51H148V19Z" fill="url(#paint28_linear_0_2394)"/>
<path d="M148 19C148 17.8954 148.895 17 150 17H153C154.105 17 155 17.8954 155 19V51H148V19Z" fill="url(#paint29_linear_0_2394)" fill-opacity="0.2"/>
<path d="M159 27C159 25.8954 159.895 25 161 25H164C165.105 25 166 25.8954 166 27V51H159V27Z" fill="url(#paint30_linear_0_2394)"/>
<path d="M159 27C159 25.8954 159.895 25 161 25H164C165.105 25 166 25.8954 166 27V51H159V27Z" fill="url(#paint31_linear_0_2394)" fill-opacity="0.2"/>
<path d="M170 13C170 11.8954 170.895 11 172 11H175C176.105 11 177 11.8954 177 13V51H170V13Z" fill="url(#paint32_linear_0_2394)"/>
<path d="M170 13C170 11.8954 170.895 11 172 11H175C176.105 11 177 11.8954 177 13V51H170V13Z" fill="url(#paint33_linear_0_2394)" fill-opacity="0.2"/>
<path d="M181 22C181 20.8954 181.895 20 183 20H186C187.105 20 188 20.8954 188 22V51H181V22Z" fill="url(#paint34_linear_0_2394)"/>
<path d="M181 22C181 20.8954 181.895 20 183 20H186C187.105 20 188 20.8954 188 22V51H181V22Z" fill="url(#paint35_linear_0_2394)" fill-opacity="0.2"/>
<path d="M192 2C192 0.89543 192.895 0 194 0H197C198.105 0 199 0.895431 199 2V51H192V2Z" fill="url(#paint36_linear_0_2394)"/>
<path d="M192 2C192 0.89543 192.895 0 194 0H197C198.105 0 199 0.895431 199 2V51H192V2Z" fill="url(#paint37_linear_0_2394)" fill-opacity="0.2"/>
<path d="M203 9C203 7.89543 203.895 7 205 7H207C208.105 7 209 7.89543 209 9V51H203V9Z" fill="url(#paint38_linear_0_2394)"/>
<path d="M203 9C203 7.89543 203.895 7 205 7H207C208.105 7 209 7.89543 209 9V51H203V9Z" fill="url(#paint39_linear_0_2394)" fill-opacity="0.2"/>
<path d="M213 25C213 23.8954 213.895 23 215 23H217C218.105 23 219 23.8954 219 25V51H213V25Z" fill="url(#paint40_linear_0_2394)"/>
<path d="M213 25C213 23.8954 213.895 23 215 23H217C218.105 23 219 23.8954 219 25V51H213V25Z" fill="url(#paint41_linear_0_2394)" fill-opacity="0.2"/>
<path d="M223 16C223 14.8954 223.895 14 225 14H227C228.105 14 229 14.8954 229 16V51H223V16Z" fill="url(#paint42_linear_0_2394)"/>
<path d="M223 16C223 14.8954 223.895 14 225 14H227C228.105 14 229 14.8954 229 16V51H223V16Z" fill="url(#paint43_linear_0_2394)" fill-opacity="0.2"/>
<path d="M233 27C233 25.8954 233.895 25 235 25H237C238.105 25 239 25.8954 239 27V51H233V27Z" fill="url(#paint44_linear_0_2394)"/>
<path d="M233 27C233 25.8954 233.895 25 235 25H237C238.105 25 239 25.8954 239 27V51H233V27Z" fill="url(#paint45_linear_0_2394)" fill-opacity="0.2"/>
<path d="M243 7C243 5.89543 243.895 5 245 5H247C248.105 5 249 5.89543 249 7V51H243V7Z" fill="url(#paint46_linear_0_2394)"/>
<path d="M243 7C243 5.89543 243.895 5 245 5H247C248.105 5 249 5.89543 249 7V51H243V7Z" fill="url(#paint47_linear_0_2394)" fill-opacity="0.2"/>
<path d="M253 16C253 14.8954 253.895 14 255 14H257C258.105 14 259 14.8954 259 16V51H253V16Z" fill="url(#paint48_linear_0_2394)"/>
<path d="M253 16C253 14.8954 253.895 14 255 14H257C258.105 14 259 14.8954 259 16V51H253V16Z" fill="url(#paint49_linear_0_2394)" fill-opacity="0.2"/>
<path d="M263 30C263 28.8954 263.895 28 265 28H268C269.105 28 270 28.8954 270 30V51H263V30Z" fill="url(#paint50_linear_0_2394)"/>
<path d="M263 30C263 28.8954 263.895 28 265 28H268C269.105 28 270 28.8954 270 30V51H263V30Z" fill="url(#paint51_linear_0_2394)" fill-opacity="0.2"/>
<path d="M274 30C274 28.8954 274.895 28 276 28H279C280.105 28 281 28.8954 281 30V51H274V30Z" fill="url(#paint52_linear_0_2394)"/>
<path d="M274 30C274 28.8954 274.895 28 276 28H279C280.105 28 281 28.8954 281 30V51H274V30Z" fill="url(#paint53_linear_0_2394)" fill-opacity="0.2"/>
<path d="M285 30C285 28.8954 285.895 28 287 28H290C291.105 28 292 28.8954 292 30V51H285V30Z" fill="url(#paint54_linear_0_2394)"/>
<path d="M285 30C285 28.8954 285.895 28 287 28H290C291.105 28 292 28.8954 292 30V51H285V30Z" fill="url(#paint55_linear_0_2394)" fill-opacity="0.2"/>
<defs>
<linearGradient id="paint0_linear_0_2394" x1="3.5" y1="33" x2="3.5" y2="51" gradientUnits="userSpaceOnUse">
<stop stop-color="#3A99D3"/>
<stop offset="1" stop-color="#3A89D3"/>
</linearGradient>
<linearGradient id="paint1_linear_0_2394" x1="3.5" y1="33" x2="3.5" y2="51" gradientUnits="userSpaceOnUse">
<stop stop-color="white" stop-opacity="0.1"/>
<stop offset="1" stop-color="white" stop-opacity="0"/>
</linearGradient>
<linearGradient id="paint2_linear_0_2394" x1="14.5" y1="24" x2="14.5" y2="51" gradientUnits="userSpaceOnUse">
<stop stop-color="#3A99D3"/>
<stop offset="1" stop-color="#3A89D3"/>
</linearGradient>
<linearGradient id="paint3_linear_0_2394" x1="14.5" y1="24" x2="14.5" y2="51" gradientUnits="userSpaceOnUse">
<stop stop-color="white" stop-opacity="0.1"/>
<stop offset="1" stop-color="white" stop-opacity="0"/>
</linearGradient>
<linearGradient id="paint4_linear_0_2394" x1="25.5" y1="15" x2="25.5" y2="51" gradientUnits="userSpaceOnUse">
<stop stop-color="#3A99D3"/>
<stop offset="1" stop-color="#3A89D3"/>
</linearGradient>
<linearGradient id="paint5_linear_0_2394" x1="25.5" y1="15" x2="25.5" y2="51" gradientUnits="userSpaceOnUse">
<stop stop-color="white" stop-opacity="0.1"/>
<stop offset="1" stop-color="white" stop-opacity="0"/>
</linearGradient>
<linearGradient id="paint6_linear_0_2394" x1="36" y1="26" x2="36" y2="51" gradientUnits="userSpaceOnUse">
<stop stop-color="#3A99D3"/>
<stop offset="1" stop-color="#3A89D3"/>
</linearGradient>
<linearGradient id="paint7_linear_0_2394" x1="36" y1="26" x2="36" y2="51" gradientUnits="userSpaceOnUse">
<stop stop-color="white" stop-opacity="0.1"/>
<stop offset="1" stop-color="white" stop-opacity="0"/>
</linearGradient>
<linearGradient id="paint8_linear_0_2394" x1="46" y1="11" x2="46" y2="51" gradientUnits="userSpaceOnUse">
<stop stop-color="#3A99D3"/>
<stop offset="1" stop-color="#3A89D3"/>
</linearGradient>
<linearGradient id="paint9_linear_0_2394" x1="46" y1="11" x2="46" y2="51" gradientUnits="userSpaceOnUse">
<stop stop-color="white" stop-opacity="0.1"/>
<stop offset="1" stop-color="white" stop-opacity="0"/>
</linearGradient>
<linearGradient id="paint10_linear_0_2394" x1="56" y1="24" x2="56" y2="51" gradientUnits="userSpaceOnUse">
<stop stop-color="#3A99D3"/>
<stop offset="1" stop-color="#3A89D3"/>
</linearGradient>
<linearGradient id="paint11_linear_0_2394" x1="56" y1="24" x2="56" y2="51" gradientUnits="userSpaceOnUse">
<stop stop-color="white" stop-opacity="0.1"/>
<stop offset="1" stop-color="white" stop-opacity="0"/>
</linearGradient>
<linearGradient id="paint12_linear_0_2394" x1="66" y1="4" x2="66" y2="51" gradientUnits="userSpaceOnUse">
<stop stop-color="#3A99D3"/>
<stop offset="1" stop-color="#3A89D3"/>
</linearGradient>
<linearGradient id="paint13_linear_0_2394" x1="66" y1="4" x2="66" y2="51" gradientUnits="userSpaceOnUse">
<stop stop-color="white" stop-opacity="0.1"/>
<stop offset="1" stop-color="white" stop-opacity="0"/>
</linearGradient>
<linearGradient id="paint14_linear_0_2394" x1="76" y1="15" x2="76" y2="51" gradientUnits="userSpaceOnUse">
<stop stop-color="#3A99D3"/>
<stop offset="1" stop-color="#3A89D3"/>
</linearGradient>
<linearGradient id="paint15_linear_0_2394" x1="76" y1="15" x2="76" y2="51" gradientUnits="userSpaceOnUse">
<stop stop-color="white" stop-opacity="0.1"/>
<stop offset="1" stop-color="white" stop-opacity="0"/>
</linearGradient>
<linearGradient id="paint16_linear_0_2394" x1="86" y1="30" x2="86" y2="51" gradientUnits="userSpaceOnUse">
<stop stop-color="#3A99D3"/>
<stop offset="1" stop-color="#3A89D3"/>
</linearGradient>
<linearGradient id="paint17_linear_0_2394" x1="86" y1="30" x2="86" y2="51" gradientUnits="userSpaceOnUse">
<stop stop-color="white" stop-opacity="0.1"/>
<stop offset="1" stop-color="white" stop-opacity="0"/>
</linearGradient>
<linearGradient id="paint18_linear_0_2394" x1="96.5" y1="0" x2="96.5" y2="51" gradientUnits="userSpaceOnUse">
<stop stop-color="#3A99D3"/>
<stop offset="1" stop-color="#3A89D3"/>
</linearGradient>
<linearGradient id="paint19_linear_0_2394" x1="96.5" y1="0" x2="96.5" y2="51" gradientUnits="userSpaceOnUse">
<stop stop-color="white" stop-opacity="0.1"/>
<stop offset="1" stop-color="white" stop-opacity="0"/>
</linearGradient>
<linearGradient id="paint20_linear_0_2394" x1="107.5" y1="11" x2="107.5" y2="51" gradientUnits="userSpaceOnUse">
<stop stop-color="#3A99D3"/>
<stop offset="1" stop-color="#3A89D3"/>
</linearGradient>
<linearGradient id="paint21_linear_0_2394" x1="107.5" y1="11" x2="107.5" y2="51" gradientUnits="userSpaceOnUse">
<stop stop-color="white" stop-opacity="0.1"/>
<stop offset="1" stop-color="white" stop-opacity="0"/>
</linearGradient>
<linearGradient id="paint22_linear_0_2394" x1="118.5" y1="0" x2="118.5" y2="51" gradientUnits="userSpaceOnUse">
<stop stop-color="#3A99D3"/>
<stop offset="1" stop-color="#3A89D3"/>
</linearGradient>
<linearGradient id="paint23_linear_0_2394" x1="118.5" y1="0" x2="118.5" y2="51" gradientUnits="userSpaceOnUse">
<stop stop-color="white" stop-opacity="0.1"/>
<stop offset="1" stop-color="white" stop-opacity="0"/>
</linearGradient>
<linearGradient id="paint24_linear_0_2394" x1="129.5" y1="20" x2="129.5" y2="51" gradientUnits="userSpaceOnUse">
<stop stop-color="#3A99D3"/>
<stop offset="1" stop-color="#3A89D3"/>
</linearGradient>
<linearGradient id="paint25_linear_0_2394" x1="129.5" y1="20" x2="129.5" y2="51" gradientUnits="userSpaceOnUse">
<stop stop-color="white" stop-opacity="0.1"/>
<stop offset="1" stop-color="white" stop-opacity="0"/>
</linearGradient>
<linearGradient id="paint26_linear_0_2394" x1="140.5" y1="0" x2="140.5" y2="51" gradientUnits="userSpaceOnUse">
<stop stop-color="#3A99D3"/>
<stop offset="1" stop-color="#3A89D3"/>
</linearGradient>
<linearGradient id="paint27_linear_0_2394" x1="140.5" y1="0" x2="140.5" y2="51" gradientUnits="userSpaceOnUse">
<stop stop-color="white" stop-opacity="0.1"/>
<stop offset="1" stop-color="white" stop-opacity="0"/>
</linearGradient>
<linearGradient id="paint28_linear_0_2394" x1="151.5" y1="17" x2="151.5" y2="51" gradientUnits="userSpaceOnUse">
<stop stop-color="#3A99D3"/>
<stop offset="1" stop-color="#3A89D3"/>
</linearGradient>
<linearGradient id="paint29_linear_0_2394" x1="151.5" y1="17" x2="151.5" y2="51" gradientUnits="userSpaceOnUse">
<stop stop-color="white" stop-opacity="0.1"/>
<stop offset="1" stop-color="white" stop-opacity="0"/>
</linearGradient>
<linearGradient id="paint30_linear_0_2394" x1="162.5" y1="25" x2="162.5" y2="51" gradientUnits="userSpaceOnUse">
<stop stop-color="#3A99D3"/>
<stop offset="1" stop-color="#3A89D3"/>
</linearGradient>
<linearGradient id="paint31_linear_0_2394" x1="162.5" y1="25" x2="162.5" y2="51" gradientUnits="userSpaceOnUse">
<stop stop-color="white" stop-opacity="0.1"/>
<stop offset="1" stop-color="white" stop-opacity="0"/>
</linearGradient>
<linearGradient id="paint32_linear_0_2394" x1="173.5" y1="11" x2="173.5" y2="51" gradientUnits="userSpaceOnUse">
<stop stop-color="#3A99D3"/>
<stop offset="1" stop-color="#3A89D3"/>
</linearGradient>
<linearGradient id="paint33_linear_0_2394" x1="173.5" y1="11" x2="173.5" y2="51" gradientUnits="userSpaceOnUse">
<stop stop-color="white" stop-opacity="0.1"/>
<stop offset="1" stop-color="white" stop-opacity="0"/>
</linearGradient>
<linearGradient id="paint34_linear_0_2394" x1="184.5" y1="20" x2="184.5" y2="51" gradientUnits="userSpaceOnUse">
<stop stop-color="#3A99D3"/>
<stop offset="1" stop-color="#3A89D3"/>
</linearGradient>
<linearGradient id="paint35_linear_0_2394" x1="184.5" y1="20" x2="184.5" y2="51" gradientUnits="userSpaceOnUse">
<stop stop-color="white" stop-opacity="0.1"/>
<stop offset="1" stop-color="white" stop-opacity="0"/>
</linearGradient>
<linearGradient id="paint36_linear_0_2394" x1="195.5" y1="0" x2="195.5" y2="51" gradientUnits="userSpaceOnUse">
<stop stop-color="#3A99D3"/>
<stop offset="1" stop-color="#3A89D3"/>
</linearGradient>
<linearGradient id="paint37_linear_0_2394" x1="195.5" y1="0" x2="195.5" y2="51" gradientUnits="userSpaceOnUse">
<stop stop-color="white" stop-opacity="0.1"/>
<stop offset="1" stop-color="white" stop-opacity="0"/>
</linearGradient>
<linearGradient id="paint38_linear_0_2394" x1="206" y1="7" x2="206" y2="51" gradientUnits="userSpaceOnUse">
<stop stop-color="#3A99D3"/>
<stop offset="1" stop-color="#3A89D3"/>
</linearGradient>
<linearGradient id="paint39_linear_0_2394" x1="206" y1="7" x2="206" y2="51" gradientUnits="userSpaceOnUse">
<stop stop-color="white" stop-opacity="0.1"/>
<stop offset="1" stop-color="white" stop-opacity="0"/>
</linearGradient>
<linearGradient id="paint40_linear_0_2394" x1="216" y1="23" x2="216" y2="51" gradientUnits="userSpaceOnUse">
<stop stop-color="#3A99D3"/>
<stop offset="1" stop-color="#3A89D3"/>
</linearGradient>
<linearGradient id="paint41_linear_0_2394" x1="216" y1="23" x2="216" y2="51" gradientUnits="userSpaceOnUse">
<stop stop-color="white" stop-opacity="0.1"/>
<stop offset="1" stop-color="white" stop-opacity="0"/>
</linearGradient>
<linearGradient id="paint42_linear_0_2394" x1="226" y1="14" x2="226" y2="51" gradientUnits="userSpaceOnUse">
<stop stop-color="#3A99D3"/>
<stop offset="1" stop-color="#3A89D3"/>
</linearGradient>
<linearGradient id="paint43_linear_0_2394" x1="226" y1="14" x2="226" y2="51" gradientUnits="userSpaceOnUse">
<stop stop-color="white" stop-opacity="0.1"/>
<stop offset="1" stop-color="white" stop-opacity="0"/>
</linearGradient>
<linearGradient id="paint44_linear_0_2394" x1="236" y1="25" x2="236" y2="51" gradientUnits="userSpaceOnUse">
<stop stop-color="#3A99D3"/>
<stop offset="1" stop-color="#3A89D3"/>
</linearGradient>
<linearGradient id="paint45_linear_0_2394" x1="236" y1="25" x2="236" y2="51" gradientUnits="userSpaceOnUse">
<stop stop-color="white" stop-opacity="0.1"/>
<stop offset="1" stop-color="white" stop-opacity="0"/>
</linearGradient>
<linearGradient id="paint46_linear_0_2394" x1="246" y1="5" x2="246" y2="51" gradientUnits="userSpaceOnUse">
<stop stop-color="#3A99D3"/>
<stop offset="1" stop-color="#3A89D3"/>
</linearGradient>
<linearGradient id="paint47_linear_0_2394" x1="246" y1="5" x2="246" y2="51" gradientUnits="userSpaceOnUse">
<stop stop-color="white" stop-opacity="0.1"/>
<stop offset="1" stop-color="white" stop-opacity="0"/>
</linearGradient>
<linearGradient id="paint48_linear_0_2394" x1="256" y1="14" x2="256" y2="51" gradientUnits="userSpaceOnUse">
<stop stop-color="#3A99D3"/>
<stop offset="1" stop-color="#3A89D3"/>
</linearGradient>
<linearGradient id="paint49_linear_0_2394" x1="256" y1="14" x2="256" y2="51" gradientUnits="userSpaceOnUse">
<stop stop-color="white" stop-opacity="0.1"/>
<stop offset="1" stop-color="white" stop-opacity="0"/>
</linearGradient>
<linearGradient id="paint50_linear_0_2394" x1="266.5" y1="28" x2="266.5" y2="51" gradientUnits="userSpaceOnUse">
<stop stop-color="#3A99D3"/>
<stop offset="1" stop-color="#3A89D3"/>
</linearGradient>
<linearGradient id="paint51_linear_0_2394" x1="266.5" y1="28" x2="266.5" y2="51" gradientUnits="userSpaceOnUse">
<stop stop-color="white" stop-opacity="0.1"/>
<stop offset="1" stop-color="white" stop-opacity="0"/>
</linearGradient>
<linearGradient id="paint52_linear_0_2394" x1="277.5" y1="28" x2="277.5" y2="51" gradientUnits="userSpaceOnUse">
<stop stop-color="#3A99D3"/>
<stop offset="1" stop-color="#3A89D3"/>
</linearGradient>
<linearGradient id="paint53_linear_0_2394" x1="277.5" y1="28" x2="277.5" y2="51" gradientUnits="userSpaceOnUse">
<stop stop-color="white" stop-opacity="0.1"/>
<stop offset="1" stop-color="white" stop-opacity="0"/>
</linearGradient>
<linearGradient id="paint54_linear_0_2394" x1="288.5" y1="28" x2="288.5" y2="51" gradientUnits="userSpaceOnUse">
<stop stop-color="#3A99D3"/>
<stop offset="1" stop-color="#3A89D3"/>
</linearGradient>
<linearGradient id="paint55_linear_0_2394" x1="288.5" y1="28" x2="288.5" y2="51" gradientUnits="userSpaceOnUse">
<stop stop-color="white" stop-opacity="0.1"/>
<stop offset="1" stop-color="white" stop-opacity="0"/>
</linearGradient>
</defs>
</svg>
