<svg width="560" height="300" viewBox="0 0 560 300" fill="none" xmlns="http://www.w3.org/2000/svg">
<rect x="0.5" y="0.5" width="559" height="299" rx="23.5" stroke="#1F4EFF"/>
<rect x="4.5" y="4.5" width="551" height="291" rx="19.5" stroke="#D7D7D7" stroke-dasharray="4 4"/>
<rect x="223.5" y="36" width="114" height="114" rx="10" fill="#EDF4FF"/>
<path fill-rule="evenodd" clip-rule="evenodd" d="M266.666 85.0003C266.666 82.0548 269.054 79.667 271.999 79.667H287.999C290.945 79.667 293.333 82.0548 293.333 85.0003V93.599L290.337 91.6384C288.025 90.1247 284.997 90.2855 282.858 92.0358L275.874 97.7502C274.41 98.9477 272.339 99.0578 270.757 98.0221L266.666 95.3445V85.0003ZM289.242 93.3118L293.333 95.9894V101C293.333 103.946 290.945 106.334 287.999 106.334H271.999C269.054 106.334 266.666 103.946 266.666 101V97.7348L269.661 99.6955C271.974 101.209 275.001 101.048 277.14 99.2981L284.125 93.5837C285.588 92.3862 287.66 92.2761 289.242 93.3118ZM275.333 91.667C277.174 91.667 278.666 90.1746 278.666 88.3337C278.666 86.4927 277.174 85.0003 275.333 85.0003C273.492 85.0003 271.999 86.4927 271.999 88.3337C271.999 90.1746 273.492 91.667 275.333 91.667Z" fill="#2563EB"/>
<path d="M170.529 175.228C171.556 175.228 172.457 175.429 173.231 175.83C174.015 176.231 174.617 176.805 175.037 177.552C175.467 178.289 175.681 179.148 175.681 180.128C175.681 181.108 175.467 181.967 175.037 182.704C174.617 183.432 174.015 183.997 173.231 184.398C172.457 184.799 171.556 185 170.529 185H167.113V175.228H170.529ZM170.459 183.334C171.486 183.334 172.279 183.054 172.839 182.494C173.399 181.934 173.679 181.145 173.679 180.128C173.679 179.111 173.399 178.317 172.839 177.748C172.279 177.169 171.486 176.88 170.459 176.88H169.073V183.334H170.459ZM179.109 178.448C179.361 178.037 179.687 177.715 180.089 177.482C180.499 177.249 180.966 177.132 181.489 177.132V179.19H180.971C180.355 179.19 179.888 179.335 179.571 179.624C179.263 179.913 179.109 180.417 179.109 181.136V185H177.149V177.244H179.109V178.448ZM182.305 181.094C182.305 180.31 182.459 179.615 182.767 179.008C183.084 178.401 183.509 177.935 184.041 177.608C184.582 177.281 185.184 177.118 185.847 177.118C186.425 177.118 186.929 177.235 187.359 177.468C187.797 177.701 188.147 177.995 188.409 178.35V177.244H190.383V185H188.409V183.866C188.157 184.23 187.807 184.533 187.359 184.776C186.92 185.009 186.411 185.126 185.833 185.126C185.179 185.126 184.582 184.958 184.041 184.622C183.509 184.286 183.084 183.815 182.767 183.208C182.459 182.592 182.305 181.887 182.305 181.094ZM188.409 181.122C188.409 180.646 188.315 180.24 188.129 179.904C187.942 179.559 187.69 179.297 187.373 179.12C187.055 178.933 186.715 178.84 186.351 178.84C185.987 178.84 185.651 178.929 185.343 179.106C185.035 179.283 184.783 179.545 184.587 179.89C184.4 180.226 184.307 180.627 184.307 181.094C184.307 181.561 184.4 181.971 184.587 182.326C184.783 182.671 185.035 182.937 185.343 183.124C185.66 183.311 185.996 183.404 186.351 183.404C186.715 183.404 187.055 183.315 187.373 183.138C187.69 182.951 187.942 182.69 188.129 182.354C188.315 182.009 188.409 181.598 188.409 181.122ZM195.335 177.118C195.914 177.118 196.422 177.235 196.861 177.468C197.3 177.692 197.645 177.986 197.897 178.35V177.244H199.871V185.056C199.871 185.775 199.726 186.414 199.437 186.974C199.148 187.543 198.714 187.991 198.135 188.318C197.556 188.654 196.856 188.822 196.035 188.822C194.934 188.822 194.028 188.565 193.319 188.052C192.619 187.539 192.222 186.839 192.129 185.952H194.075C194.178 186.307 194.397 186.587 194.733 186.792C195.078 187.007 195.494 187.114 195.979 187.114C196.548 187.114 197.01 186.941 197.365 186.596C197.72 186.26 197.897 185.747 197.897 185.056V183.852C197.645 184.216 197.295 184.519 196.847 184.762C196.408 185.005 195.904 185.126 195.335 185.126C194.682 185.126 194.084 184.958 193.543 184.622C193.002 184.286 192.572 183.815 192.255 183.208C191.947 182.592 191.793 181.887 191.793 181.094C191.793 180.31 191.947 179.615 192.255 179.008C192.572 178.401 192.997 177.935 193.529 177.608C194.07 177.281 194.672 177.118 195.335 177.118ZM197.897 181.122C197.897 180.646 197.804 180.24 197.617 179.904C197.43 179.559 197.178 179.297 196.861 179.12C196.544 178.933 196.203 178.84 195.839 178.84C195.475 178.84 195.139 178.929 194.831 179.106C194.523 179.283 194.271 179.545 194.075 179.89C193.888 180.226 193.795 180.627 193.795 181.094C193.795 181.561 193.888 181.971 194.075 182.326C194.271 182.671 194.523 182.937 194.831 183.124C195.148 183.311 195.484 183.404 195.839 183.404C196.203 183.404 196.544 183.315 196.861 183.138C197.178 182.951 197.43 182.69 197.617 182.354C197.804 182.009 197.897 181.598 197.897 181.122ZM204.617 181.094C204.617 180.31 204.771 179.615 205.079 179.008C205.397 178.401 205.821 177.935 206.353 177.608C206.895 177.281 207.497 177.118 208.159 177.118C208.738 177.118 209.242 177.235 209.671 177.468C210.11 177.701 210.46 177.995 210.721 178.35V177.244H212.695V185H210.721V183.866C210.469 184.23 210.119 184.533 209.671 184.776C209.233 185.009 208.724 185.126 208.145 185.126C207.492 185.126 206.895 184.958 206.353 184.622C205.821 184.286 205.397 183.815 205.079 183.208C204.771 182.592 204.617 181.887 204.617 181.094ZM210.721 181.122C210.721 180.646 210.628 180.24 210.441 179.904C210.255 179.559 210.003 179.297 209.685 179.12C209.368 178.933 209.027 178.84 208.663 178.84C208.299 178.84 207.963 178.929 207.655 179.106C207.347 179.283 207.095 179.545 206.899 179.89C206.713 180.226 206.619 180.627 206.619 181.094C206.619 181.561 206.713 181.971 206.899 182.326C207.095 182.671 207.347 182.937 207.655 183.124C207.973 183.311 208.309 183.404 208.663 183.404C209.027 183.404 209.368 183.315 209.685 183.138C210.003 182.951 210.255 182.69 210.441 182.354C210.628 182.009 210.721 181.598 210.721 181.122ZM218.908 177.132C219.832 177.132 220.578 177.426 221.148 178.014C221.717 178.593 222.002 179.405 222.002 180.45V185H220.042V180.716C220.042 180.1 219.888 179.629 219.58 179.302C219.272 178.966 218.852 178.798 218.32 178.798C217.778 178.798 217.349 178.966 217.032 179.302C216.724 179.629 216.57 180.1 216.57 180.716V185H214.61V177.244H216.57V178.21C216.831 177.874 217.162 177.613 217.564 177.426C217.974 177.23 218.422 177.132 218.908 177.132ZM223.361 181.094C223.361 180.31 223.515 179.615 223.823 179.008C224.141 178.401 224.57 177.935 225.111 177.608C225.653 177.281 226.255 177.118 226.917 177.118C227.421 177.118 227.902 177.23 228.359 177.454C228.817 177.669 229.181 177.958 229.451 178.322V174.64H231.439V185H229.451V183.852C229.209 184.235 228.868 184.543 228.429 184.776C227.991 185.009 227.482 185.126 226.903 185.126C226.25 185.126 225.653 184.958 225.111 184.622C224.57 184.286 224.141 183.815 223.823 183.208C223.515 182.592 223.361 181.887 223.361 181.094ZM229.465 181.122C229.465 180.646 229.372 180.24 229.185 179.904C228.999 179.559 228.747 179.297 228.429 179.12C228.112 178.933 227.771 178.84 227.407 178.84C227.043 178.84 226.707 178.929 226.399 179.106C226.091 179.283 225.839 179.545 225.643 179.89C225.457 180.226 225.363 180.627 225.363 181.094C225.363 181.561 225.457 181.971 225.643 182.326C225.839 182.671 226.091 182.937 226.399 183.124C226.717 183.311 227.053 183.404 227.407 183.404C227.771 183.404 228.112 183.315 228.429 183.138C228.747 182.951 228.999 182.69 229.185 182.354C229.372 182.009 229.465 181.598 229.465 181.122ZM236.186 181.094C236.186 180.31 236.34 179.615 236.648 179.008C236.965 178.401 237.394 177.935 237.936 177.608C238.477 177.281 239.079 177.118 239.742 177.118C240.246 177.118 240.726 177.23 241.184 177.454C241.641 177.669 242.005 177.958 242.276 178.322V174.64H244.264V185H242.276V183.852C242.033 184.235 241.692 184.543 241.254 184.776C240.815 185.009 240.306 185.126 239.728 185.126C239.074 185.126 238.477 184.958 237.936 184.622C237.394 184.286 236.965 183.815 236.648 183.208C236.34 182.592 236.186 181.887 236.186 181.094ZM242.29 181.122C242.29 180.646 242.196 180.24 242.01 179.904C241.823 179.559 241.571 179.297 241.254 179.12C240.936 178.933 240.596 178.84 240.232 178.84C239.868 178.84 239.532 178.929 239.224 179.106C238.916 179.283 238.664 179.545 238.468 179.89C238.281 180.226 238.188 180.627 238.188 181.094C238.188 181.561 238.281 181.971 238.468 182.326C238.664 182.671 238.916 182.937 239.224 183.124C239.541 183.311 239.877 183.404 240.232 183.404C240.596 183.404 240.936 183.315 241.254 183.138C241.571 182.951 241.823 182.69 242.01 182.354C242.196 182.009 242.29 181.598 242.29 181.122ZM248.138 178.448C248.39 178.037 248.717 177.715 249.118 177.482C249.529 177.249 249.995 177.132 250.518 177.132V179.19H250C249.384 179.19 248.917 179.335 248.6 179.624C248.292 179.913 248.138 180.417 248.138 181.136V185H246.178V177.244H248.138V178.448ZM255.282 185.126C254.535 185.126 253.863 184.963 253.266 184.636C252.669 184.3 252.197 183.829 251.852 183.222C251.516 182.615 251.348 181.915 251.348 181.122C251.348 180.329 251.521 179.629 251.866 179.022C252.221 178.415 252.701 177.949 253.308 177.622C253.915 177.286 254.591 177.118 255.338 177.118C256.085 177.118 256.761 177.286 257.368 177.622C257.975 177.949 258.451 178.415 258.796 179.022C259.151 179.629 259.328 180.329 259.328 181.122C259.328 181.915 259.146 182.615 258.782 183.222C258.427 183.829 257.942 184.3 257.326 184.636C256.719 184.963 256.038 185.126 255.282 185.126ZM255.282 183.418C255.637 183.418 255.968 183.334 256.276 183.166C256.593 182.989 256.845 182.727 257.032 182.382C257.219 182.037 257.312 181.617 257.312 181.122C257.312 180.385 257.116 179.82 256.724 179.428C256.341 179.027 255.87 178.826 255.31 178.826C254.75 178.826 254.279 179.027 253.896 179.428C253.523 179.82 253.336 180.385 253.336 181.122C253.336 181.859 253.518 182.429 253.882 182.83C254.255 183.222 254.722 183.418 255.282 183.418ZM262.726 178.364C262.978 178.009 263.323 177.715 263.762 177.482C264.21 177.239 264.718 177.118 265.288 177.118C265.95 177.118 266.548 177.281 267.08 177.608C267.621 177.935 268.046 178.401 268.354 179.008C268.671 179.605 268.83 180.301 268.83 181.094C268.83 181.887 268.671 182.592 268.354 183.208C268.046 183.815 267.621 184.286 267.08 184.622C266.548 184.958 265.95 185.126 265.288 185.126C264.718 185.126 264.214 185.009 263.776 184.776C263.346 184.543 262.996 184.249 262.726 183.894V188.696H260.766V177.244H262.726V178.364ZM266.828 181.094C266.828 180.627 266.73 180.226 266.534 179.89C266.347 179.545 266.095 179.283 265.778 179.106C265.47 178.929 265.134 178.84 264.77 178.84C264.415 178.84 264.079 178.933 263.762 179.12C263.454 179.297 263.202 179.559 263.006 179.904C262.819 180.249 262.726 180.655 262.726 181.122C262.726 181.589 262.819 181.995 263.006 182.34C263.202 182.685 263.454 182.951 263.762 183.138C264.079 183.315 264.415 183.404 264.77 183.404C265.134 183.404 265.47 183.311 265.778 183.124C266.095 182.937 266.347 182.671 266.534 182.326C266.73 181.981 266.828 181.57 266.828 181.094ZM275.55 178.364C275.802 178.009 276.147 177.715 276.586 177.482C277.034 177.239 277.543 177.118 278.112 177.118C278.775 177.118 279.372 177.281 279.904 177.608C280.445 177.935 280.87 178.401 281.178 179.008C281.495 179.605 281.654 180.301 281.654 181.094C281.654 181.887 281.495 182.592 281.178 183.208C280.87 183.815 280.445 184.286 279.904 184.622C279.372 184.958 278.775 185.126 278.112 185.126C277.543 185.126 277.039 185.009 276.6 184.776C276.171 184.543 275.821 184.249 275.55 183.894V188.696H273.59V177.244H275.55V178.364ZM279.652 181.094C279.652 180.627 279.554 180.226 279.358 179.89C279.171 179.545 278.919 179.283 278.602 179.106C278.294 178.929 277.958 178.84 277.594 178.84C277.239 178.84 276.903 178.933 276.586 179.12C276.278 179.297 276.026 179.559 275.83 179.904C275.643 180.249 275.55 180.655 275.55 181.122C275.55 181.589 275.643 181.995 275.83 182.34C276.026 182.685 276.278 182.951 276.586 183.138C276.903 183.315 277.239 183.404 277.594 183.404C277.958 183.404 278.294 183.311 278.602 183.124C278.919 182.937 279.171 182.671 279.358 182.326C279.554 181.981 279.652 181.57 279.652 181.094ZM287.446 177.132C288.034 177.132 288.557 177.263 289.014 177.524C289.472 177.776 289.826 178.154 290.078 178.658C290.34 179.153 290.47 179.75 290.47 180.45V185H288.51V180.716C288.51 180.1 288.356 179.629 288.048 179.302C287.74 178.966 287.32 178.798 286.788 178.798C286.247 178.798 285.818 178.966 285.5 179.302C285.192 179.629 285.038 180.1 285.038 180.716V185H283.078V174.64H285.038V178.21C285.29 177.874 285.626 177.613 286.046 177.426C286.466 177.23 286.933 177.132 287.446 177.132ZM295.778 185.126C295.031 185.126 294.359 184.963 293.762 184.636C293.165 184.3 292.693 183.829 292.348 183.222C292.012 182.615 291.844 181.915 291.844 181.122C291.844 180.329 292.017 179.629 292.362 179.022C292.717 178.415 293.197 177.949 293.804 177.622C294.411 177.286 295.087 177.118 295.834 177.118C296.581 177.118 297.257 177.286 297.864 177.622C298.471 177.949 298.947 178.415 299.292 179.022C299.647 179.629 299.824 180.329 299.824 181.122C299.824 181.915 299.642 182.615 299.278 183.222C298.923 183.829 298.438 184.3 297.822 184.636C297.215 184.963 296.534 185.126 295.778 185.126ZM295.778 183.418C296.133 183.418 296.464 183.334 296.772 183.166C297.089 182.989 297.341 182.727 297.528 182.382C297.715 182.037 297.808 181.617 297.808 181.122C297.808 180.385 297.612 179.82 297.22 179.428C296.837 179.027 296.366 178.826 295.806 178.826C295.246 178.826 294.775 179.027 294.392 179.428C294.019 179.82 293.832 180.385 293.832 181.122C293.832 181.859 294.014 182.429 294.378 182.83C294.751 183.222 295.218 183.418 295.778 183.418ZM303.544 178.854V182.606C303.544 182.867 303.605 183.059 303.726 183.18C303.857 183.292 304.071 183.348 304.37 183.348H305.28V185H304.048C302.396 185 301.57 184.197 301.57 182.592V178.854H300.646V177.244H301.57V175.326H303.544V177.244H305.28V178.854H303.544ZM310.134 185.126C309.387 185.126 308.715 184.963 308.118 184.636C307.52 184.3 307.049 183.829 306.704 183.222C306.368 182.615 306.2 181.915 306.2 181.122C306.2 180.329 306.372 179.629 306.718 179.022C307.072 178.415 307.553 177.949 308.16 177.622C308.766 177.286 309.443 177.118 310.19 177.118C310.936 177.118 311.613 177.286 312.22 177.622C312.826 177.949 313.302 178.415 313.648 179.022C314.002 179.629 314.18 180.329 314.18 181.122C314.18 181.915 313.998 182.615 313.634 183.222C313.279 183.829 312.794 184.3 312.178 184.636C311.571 184.963 310.89 185.126 310.134 185.126ZM310.134 183.418C310.488 183.418 310.82 183.334 311.128 183.166C311.445 182.989 311.697 182.727 311.884 182.382C312.07 182.037 312.164 181.617 312.164 181.122C312.164 180.385 311.968 179.82 311.576 179.428C311.193 179.027 310.722 178.826 310.162 178.826C309.602 178.826 309.13 179.027 308.748 179.428C308.374 179.82 308.188 180.385 308.188 181.122C308.188 181.859 308.37 182.429 308.734 182.83C309.107 183.222 309.574 183.418 310.134 183.418ZM318.585 185.126C317.951 185.126 317.381 185.014 316.877 184.79C316.373 184.557 315.972 184.244 315.673 183.852C315.384 183.46 315.225 183.026 315.197 182.55H317.171C317.209 182.849 317.353 183.096 317.605 183.292C317.867 183.488 318.189 183.586 318.571 183.586C318.945 183.586 319.234 183.511 319.439 183.362C319.654 183.213 319.761 183.021 319.761 182.788C319.761 182.536 319.631 182.349 319.369 182.228C319.117 182.097 318.711 181.957 318.151 181.808C317.573 181.668 317.097 181.523 316.723 181.374C316.359 181.225 316.042 180.996 315.771 180.688C315.51 180.38 315.379 179.965 315.379 179.442C315.379 179.013 315.501 178.621 315.743 178.266C315.995 177.911 316.35 177.631 316.807 177.426C317.274 177.221 317.82 177.118 318.445 177.118C319.369 177.118 320.107 177.351 320.657 177.818C321.208 178.275 321.511 178.896 321.567 179.68H319.691C319.663 179.372 319.533 179.129 319.299 178.952C319.075 178.765 318.772 178.672 318.389 178.672C318.035 178.672 317.759 178.737 317.563 178.868C317.377 178.999 317.283 179.181 317.283 179.414C317.283 179.675 317.414 179.876 317.675 180.016C317.937 180.147 318.343 180.282 318.893 180.422C319.453 180.562 319.915 180.707 320.279 180.856C320.643 181.005 320.956 181.239 321.217 181.556C321.488 181.864 321.628 182.275 321.637 182.788C321.637 183.236 321.511 183.637 321.259 183.992C321.017 184.347 320.662 184.627 320.195 184.832C319.738 185.028 319.201 185.126 318.585 185.126ZM328.864 178.854V182.606C328.864 182.867 328.925 183.059 329.046 183.18C329.177 183.292 329.392 183.348 329.69 183.348H330.6V185H329.368C327.716 185 326.89 184.197 326.89 182.592V178.854H325.966V177.244H326.89V175.326H328.864V177.244H330.6V178.854H328.864ZM335.454 185.126C334.707 185.126 334.035 184.963 333.438 184.636C332.841 184.3 332.369 183.829 332.024 183.222C331.688 182.615 331.52 181.915 331.52 181.122C331.52 180.329 331.693 179.629 332.038 179.022C332.393 178.415 332.873 177.949 333.48 177.622C334.087 177.286 334.763 177.118 335.51 177.118C336.257 177.118 336.933 177.286 337.54 177.622C338.147 177.949 338.623 178.415 338.968 179.022C339.323 179.629 339.5 180.329 339.5 181.122C339.5 181.915 339.318 182.615 338.954 183.222C338.599 183.829 338.114 184.3 337.498 184.636C336.891 184.963 336.21 185.126 335.454 185.126ZM335.454 183.418C335.809 183.418 336.14 183.334 336.448 183.166C336.765 182.989 337.017 182.727 337.204 182.382C337.391 182.037 337.484 181.617 337.484 181.122C337.484 180.385 337.288 179.82 336.896 179.428C336.513 179.027 336.042 178.826 335.482 178.826C334.922 178.826 334.451 179.027 334.068 179.428C333.695 179.82 333.508 180.385 333.508 181.122C333.508 181.859 333.69 182.429 334.054 182.83C334.427 183.222 334.894 183.418 335.454 183.418ZM351.596 177.244V185H349.622V184.02C349.37 184.356 349.038 184.622 348.628 184.818C348.226 185.005 347.788 185.098 347.312 185.098C346.705 185.098 346.168 184.972 345.702 184.72C345.235 184.459 344.866 184.081 344.596 183.586C344.334 183.082 344.204 182.485 344.204 181.794V177.244H346.164V181.514C346.164 182.13 346.318 182.606 346.626 182.942C346.934 183.269 347.354 183.432 347.886 183.432C348.427 183.432 348.852 183.269 349.16 182.942C349.468 182.606 349.622 182.13 349.622 181.514V177.244H351.596ZM355.489 178.364C355.741 178.009 356.087 177.715 356.525 177.482C356.973 177.239 357.482 177.118 358.051 177.118C358.714 177.118 359.311 177.281 359.843 177.608C360.385 177.935 360.809 178.401 361.117 179.008C361.435 179.605 361.593 180.301 361.593 181.094C361.593 181.887 361.435 182.592 361.117 183.208C360.809 183.815 360.385 184.286 359.843 184.622C359.311 184.958 358.714 185.126 358.051 185.126C357.482 185.126 356.978 185.009 356.539 184.776C356.11 184.543 355.76 184.249 355.489 183.894V188.696H353.529V177.244H355.489V178.364ZM359.591 181.094C359.591 180.627 359.493 180.226 359.297 179.89C359.111 179.545 358.859 179.283 358.541 179.106C358.233 178.929 357.897 178.84 357.533 178.84C357.179 178.84 356.843 178.933 356.525 179.12C356.217 179.297 355.965 179.559 355.769 179.904C355.583 180.249 355.489 180.655 355.489 181.122C355.489 181.589 355.583 181.995 355.769 182.34C355.965 182.685 356.217 182.951 356.525 183.138C356.843 183.315 357.179 183.404 357.533 183.404C357.897 183.404 358.233 183.311 358.541 183.124C358.859 182.937 359.111 182.671 359.297 182.326C359.493 181.981 359.591 181.57 359.591 181.094ZM364.978 174.64V185H363.018V174.64H364.978ZM370.358 185.126C369.612 185.126 368.94 184.963 368.342 184.636C367.745 184.3 367.274 183.829 366.928 183.222C366.592 182.615 366.424 181.915 366.424 181.122C366.424 180.329 366.597 179.629 366.942 179.022C367.297 178.415 367.778 177.949 368.384 177.622C368.991 177.286 369.668 177.118 370.414 177.118C371.161 177.118 371.838 177.286 372.444 177.622C373.051 177.949 373.527 178.415 373.872 179.022C374.227 179.629 374.404 180.329 374.404 181.122C374.404 181.915 374.222 182.615 373.858 183.222C373.504 183.829 373.018 184.3 372.402 184.636C371.796 184.963 371.114 185.126 370.358 185.126ZM370.358 183.418C370.713 183.418 371.044 183.334 371.352 183.166C371.67 182.989 371.922 182.727 372.108 182.382C372.295 182.037 372.388 181.617 372.388 181.122C372.388 180.385 372.192 179.82 371.8 179.428C371.418 179.027 370.946 178.826 370.386 178.826C369.826 178.826 369.355 179.027 368.972 179.428C368.599 179.82 368.412 180.385 368.412 181.122C368.412 181.859 368.594 182.429 368.958 182.83C369.332 183.222 369.798 183.418 370.358 183.418ZM375.338 181.094C375.338 180.31 375.492 179.615 375.8 179.008C376.117 178.401 376.542 177.935 377.074 177.608C377.615 177.281 378.217 177.118 378.88 177.118C379.459 177.118 379.963 177.235 380.392 177.468C380.831 177.701 381.181 177.995 381.442 178.35V177.244H383.416V185H381.442V183.866C381.19 184.23 380.84 184.533 380.392 184.776C379.953 185.009 379.445 185.126 378.866 185.126C378.213 185.126 377.615 184.958 377.074 184.622C376.542 184.286 376.117 183.815 375.8 183.208C375.492 182.592 375.338 181.887 375.338 181.094ZM381.442 181.122C381.442 180.646 381.349 180.24 381.162 179.904C380.975 179.559 380.723 179.297 380.406 179.12C380.089 178.933 379.748 178.84 379.384 178.84C379.02 178.84 378.684 178.929 378.376 179.106C378.068 179.283 377.816 179.545 377.62 179.89C377.433 180.226 377.34 180.627 377.34 181.094C377.34 181.561 377.433 181.971 377.62 182.326C377.816 182.671 378.068 182.937 378.376 183.124C378.693 183.311 379.029 183.404 379.384 183.404C379.748 183.404 380.089 183.315 380.406 183.138C380.723 182.951 380.975 182.69 381.162 182.354C381.349 182.009 381.442 181.598 381.442 181.122ZM384.826 181.094C384.826 180.31 384.98 179.615 385.288 179.008C385.606 178.401 386.035 177.935 386.576 177.608C387.118 177.281 387.72 177.118 388.382 177.118C388.886 177.118 389.367 177.23 389.824 177.454C390.282 177.669 390.646 177.958 390.916 178.322V174.64H392.904V185H390.916V183.852C390.674 184.235 390.333 184.543 389.894 184.776C389.456 185.009 388.947 185.126 388.368 185.126C387.715 185.126 387.118 184.958 386.576 184.622C386.035 184.286 385.606 183.815 385.288 183.208C384.98 182.592 384.826 181.887 384.826 181.094ZM390.93 181.122C390.93 180.646 390.837 180.24 390.65 179.904C390.464 179.559 390.212 179.297 389.894 179.12C389.577 178.933 389.236 178.84 388.872 178.84C388.508 178.84 388.172 178.929 387.864 179.106C387.556 179.283 387.304 179.545 387.108 179.89C386.922 180.226 386.828 180.627 386.828 181.094C386.828 181.561 386.922 181.971 387.108 182.326C387.304 182.671 387.556 182.937 387.864 183.124C388.182 183.311 388.518 183.404 388.872 183.404C389.236 183.404 389.577 183.315 389.894 183.138C390.212 182.951 390.464 182.69 390.65 182.354C390.837 182.009 390.93 181.598 390.93 181.122Z" fill="#28303F"/>
<path d="M206.635 204.7C206.635 204.02 206.771 203.428 207.043 202.924C207.315 202.412 207.691 202.016 208.171 201.736C208.659 201.456 209.215 201.316 209.839 201.316C210.647 201.316 211.311 201.512 211.831 201.904C212.359 202.296 212.707 202.84 212.875 203.536H211.699C211.587 203.136 211.367 202.82 211.039 202.588C210.719 202.356 210.319 202.24 209.839 202.24C209.215 202.24 208.711 202.456 208.327 202.888C207.943 203.312 207.751 203.916 207.751 204.7C207.751 205.492 207.943 206.104 208.327 206.536C208.711 206.968 209.215 207.184 209.839 207.184C210.319 207.184 210.719 207.072 211.039 206.848C211.359 206.624 211.579 206.304 211.699 205.888H212.875C212.699 206.56 212.347 207.1 211.819 207.508C211.291 207.908 210.631 208.108 209.839 208.108C209.215 208.108 208.659 207.968 208.171 207.688C207.691 207.408 207.315 207.012 207.043 206.5C206.771 205.988 206.635 205.388 206.635 204.7ZM217.596 201.304C218.092 201.304 218.54 201.412 218.94 201.628C219.34 201.836 219.652 202.152 219.876 202.576C220.108 203 220.224 203.516 220.224 204.124V208H219.144V204.28C219.144 203.624 218.98 203.124 218.652 202.78C218.324 202.428 217.876 202.252 217.308 202.252C216.732 202.252 216.272 202.432 215.928 202.792C215.592 203.152 215.424 203.676 215.424 204.364V208H214.332V199.12H215.424V202.36C215.64 202.024 215.936 201.764 216.312 201.58C216.696 201.396 217.124 201.304 217.596 201.304ZM224.876 208.108C224.26 208.108 223.7 207.968 223.196 207.688C222.7 207.408 222.308 207.012 222.02 206.5C221.74 205.98 221.6 205.38 221.6 204.7C221.6 204.028 221.744 203.436 222.032 202.924C222.328 202.404 222.728 202.008 223.232 201.736C223.736 201.456 224.3 201.316 224.924 201.316C225.548 201.316 226.112 201.456 226.616 201.736C227.12 202.008 227.516 202.4 227.804 202.912C228.1 203.424 228.248 204.02 228.248 204.7C228.248 205.38 228.096 205.98 227.792 206.5C227.496 207.012 227.092 207.408 226.58 207.688C226.068 207.968 225.5 208.108 224.876 208.108ZM224.876 207.148C225.268 207.148 225.636 207.056 225.98 206.872C226.324 206.688 226.6 206.412 226.808 206.044C227.024 205.676 227.132 205.228 227.132 204.7C227.132 204.172 227.028 203.724 226.82 203.356C226.612 202.988 226.34 202.716 226.004 202.54C225.668 202.356 225.304 202.264 224.912 202.264C224.512 202.264 224.144 202.356 223.808 202.54C223.48 202.716 223.216 202.988 223.016 203.356C222.816 203.724 222.716 204.172 222.716 204.7C222.716 205.236 222.812 205.688 223.004 206.056C223.204 206.424 223.468 206.7 223.796 206.884C224.124 207.06 224.484 207.148 224.876 207.148ZM232.552 208.108C231.936 208.108 231.376 207.968 230.872 207.688C230.376 207.408 229.984 207.012 229.696 206.5C229.416 205.98 229.276 205.38 229.276 204.7C229.276 204.028 229.42 203.436 229.708 202.924C230.004 202.404 230.404 202.008 230.908 201.736C231.412 201.456 231.976 201.316 232.6 201.316C233.224 201.316 233.788 201.456 234.292 201.736C234.796 202.008 235.192 202.4 235.48 202.912C235.776 203.424 235.924 204.02 235.924 204.7C235.924 205.38 235.772 205.98 235.468 206.5C235.172 207.012 234.768 207.408 234.256 207.688C233.744 207.968 233.176 208.108 232.552 208.108ZM232.552 207.148C232.944 207.148 233.312 207.056 233.656 206.872C234 206.688 234.276 206.412 234.484 206.044C234.7 205.676 234.808 205.228 234.808 204.7C234.808 204.172 234.704 203.724 234.496 203.356C234.288 202.988 234.016 202.716 233.68 202.54C233.344 202.356 232.98 202.264 232.588 202.264C232.188 202.264 231.82 202.356 231.484 202.54C231.156 202.716 230.892 202.988 230.692 203.356C230.492 203.724 230.392 204.172 230.392 204.7C230.392 205.236 230.488 205.688 230.68 206.056C230.88 206.424 231.144 206.7 231.472 206.884C231.8 207.06 232.16 207.148 232.552 207.148ZM239.688 208.108C239.184 208.108 238.732 208.024 238.332 207.856C237.932 207.68 237.616 207.44 237.384 207.136C237.152 206.824 237.024 206.468 237 206.068H238.128C238.16 206.396 238.312 206.664 238.584 206.872C238.864 207.08 239.228 207.184 239.676 207.184C240.092 207.184 240.42 207.092 240.66 206.908C240.9 206.724 241.02 206.492 241.02 206.212C241.02 205.924 240.892 205.712 240.636 205.576C240.38 205.432 239.984 205.292 239.448 205.156C238.96 205.028 238.56 204.9 238.248 204.772C237.944 204.636 237.68 204.44 237.456 204.184C237.24 203.92 237.132 203.576 237.132 203.152C237.132 202.816 237.232 202.508 237.432 202.228C237.632 201.948 237.916 201.728 238.284 201.568C238.652 201.4 239.072 201.316 239.544 201.316C240.272 201.316 240.86 201.5 241.308 201.868C241.756 202.236 241.996 202.74 242.028 203.38H240.936C240.912 203.036 240.772 202.76 240.516 202.552C240.268 202.344 239.932 202.24 239.508 202.24C239.116 202.24 238.804 202.324 238.572 202.492C238.34 202.66 238.224 202.88 238.224 203.152C238.224 203.368 238.292 203.548 238.428 203.692C238.572 203.828 238.748 203.94 238.956 204.028C239.172 204.108 239.468 204.2 239.844 204.304C240.316 204.432 240.7 204.56 240.996 204.688C241.292 204.808 241.544 204.992 241.752 205.24C241.968 205.488 242.08 205.812 242.088 206.212C242.088 206.572 241.988 206.896 241.788 207.184C241.588 207.472 241.304 207.7 240.936 207.868C240.576 208.028 240.16 208.108 239.688 208.108ZM249.629 204.46C249.629 204.668 249.617 204.888 249.593 205.12H244.337C244.377 205.768 244.597 206.276 244.997 206.644C245.405 207.004 245.897 207.184 246.473 207.184C246.945 207.184 247.337 207.076 247.649 206.86C247.969 206.636 248.193 206.34 248.321 205.972H249.497C249.321 206.604 248.969 207.12 248.441 207.52C247.913 207.912 247.257 208.108 246.473 208.108C245.849 208.108 245.289 207.968 244.793 207.688C244.305 207.408 243.921 207.012 243.641 206.5C243.361 205.98 243.221 205.38 243.221 204.7C243.221 204.02 243.357 203.424 243.629 202.912C243.901 202.4 244.281 202.008 244.769 201.736C245.265 201.456 245.833 201.316 246.473 201.316C247.097 201.316 247.649 201.452 248.129 201.724C248.609 201.996 248.977 202.372 249.233 202.852C249.497 203.324 249.629 203.86 249.629 204.46ZM248.501 204.232C248.501 203.816 248.409 203.46 248.225 203.164C248.041 202.86 247.789 202.632 247.469 202.48C247.157 202.32 246.809 202.24 246.425 202.24C245.873 202.24 245.401 202.416 245.009 202.768C244.625 203.12 244.405 203.608 244.349 204.232H248.501ZM253.862 204.688C253.862 204.016 253.998 203.428 254.27 202.924C254.542 202.412 254.914 202.016 255.386 201.736C255.866 201.456 256.398 201.316 256.982 201.316C257.558 201.316 258.058 201.44 258.482 201.688C258.906 201.936 259.222 202.248 259.43 202.624V201.424H260.534V208H259.43V206.776C259.214 207.16 258.89 207.48 258.458 207.736C258.034 207.984 257.538 208.108 256.97 208.108C256.386 208.108 255.858 207.964 255.386 207.676C254.914 207.388 254.542 206.984 254.27 206.464C253.998 205.944 253.862 205.352 253.862 204.688ZM259.43 204.7C259.43 204.204 259.33 203.772 259.13 203.404C258.93 203.036 258.658 202.756 258.314 202.564C257.978 202.364 257.606 202.264 257.198 202.264C256.79 202.264 256.418 202.36 256.082 202.552C255.746 202.744 255.478 203.024 255.278 203.392C255.078 203.76 254.978 204.192 254.978 204.688C254.978 205.192 255.078 205.632 255.278 206.008C255.478 206.376 255.746 206.66 256.082 206.86C256.418 207.052 256.79 207.148 257.198 207.148C257.606 207.148 257.978 207.052 258.314 206.86C258.658 206.66 258.93 206.376 259.13 206.008C259.33 205.632 259.43 205.196 259.43 204.7ZM263.711 202.324V206.2C263.711 206.52 263.779 206.748 263.915 206.884C264.051 207.012 264.287 207.076 264.623 207.076H265.427V208H264.443C263.835 208 263.379 207.86 263.075 207.58C262.771 207.3 262.619 206.84 262.619 206.2V202.324H261.767V201.424H262.619V199.768H263.711V201.424H265.427V202.324H263.711ZM271.041 199.12V208H269.949V199.12H271.041ZM278.903 204.46C278.903 204.668 278.891 204.888 278.867 205.12H273.611C273.651 205.768 273.871 206.276 274.271 206.644C274.679 207.004 275.171 207.184 275.747 207.184C276.219 207.184 276.611 207.076 276.923 206.86C277.243 206.636 277.467 206.34 277.595 205.972H278.771C278.595 206.604 278.243 207.12 277.715 207.52C277.187 207.912 276.531 208.108 275.747 208.108C275.123 208.108 274.563 207.968 274.067 207.688C273.579 207.408 273.195 207.012 272.915 206.5C272.635 205.98 272.495 205.38 272.495 204.7C272.495 204.02 272.631 203.424 272.903 202.912C273.175 202.4 273.555 202.008 274.043 201.736C274.539 201.456 275.107 201.316 275.747 201.316C276.371 201.316 276.923 201.452 277.403 201.724C277.883 201.996 278.251 202.372 278.507 202.852C278.771 203.324 278.903 203.86 278.903 204.46ZM277.775 204.232C277.775 203.816 277.683 203.46 277.499 203.164C277.315 202.86 277.063 202.632 276.743 202.48C276.431 202.32 276.083 202.24 275.699 202.24C275.147 202.24 274.675 202.416 274.283 202.768C273.899 203.12 273.679 203.608 273.623 204.232H277.775ZM279.936 204.688C279.936 204.016 280.072 203.428 280.344 202.924C280.616 202.412 280.988 202.016 281.46 201.736C281.94 201.456 282.472 201.316 283.056 201.316C283.632 201.316 284.132 201.44 284.556 201.688C284.98 201.936 285.296 202.248 285.504 202.624V201.424H286.608V208H285.504V206.776C285.288 207.16 284.964 207.48 284.532 207.736C284.108 207.984 283.612 208.108 283.044 208.108C282.46 208.108 281.932 207.964 281.46 207.676C280.988 207.388 280.616 206.984 280.344 206.464C280.072 205.944 279.936 205.352 279.936 204.688ZM285.504 204.7C285.504 204.204 285.404 203.772 285.204 203.404C285.004 203.036 284.732 202.756 284.388 202.564C284.052 202.364 283.68 202.264 283.272 202.264C282.864 202.264 282.492 202.36 282.156 202.552C281.82 202.744 281.552 203.024 281.352 203.392C281.152 203.76 281.052 204.192 281.052 204.688C281.052 205.192 281.152 205.632 281.352 206.008C281.552 206.376 281.82 206.66 282.156 206.86C282.492 207.052 282.864 207.148 283.272 207.148C283.68 207.148 284.052 207.052 284.388 206.86C284.732 206.66 285.004 206.376 285.204 206.008C285.404 205.632 285.504 205.196 285.504 204.7ZM290.781 208.108C290.277 208.108 289.825 208.024 289.425 207.856C289.025 207.68 288.709 207.44 288.477 207.136C288.245 206.824 288.117 206.468 288.093 206.068H289.221C289.253 206.396 289.405 206.664 289.677 206.872C289.957 207.08 290.321 207.184 290.769 207.184C291.185 207.184 291.513 207.092 291.753 206.908C291.993 206.724 292.113 206.492 292.113 206.212C292.113 205.924 291.985 205.712 291.729 205.576C291.473 205.432 291.077 205.292 290.541 205.156C290.053 205.028 289.653 204.9 289.341 204.772C289.037 204.636 288.773 204.44 288.549 204.184C288.333 203.92 288.225 203.576 288.225 203.152C288.225 202.816 288.325 202.508 288.525 202.228C288.725 201.948 289.009 201.728 289.377 201.568C289.745 201.4 290.165 201.316 290.637 201.316C291.365 201.316 291.953 201.5 292.401 201.868C292.849 202.236 293.089 202.74 293.121 203.38H292.029C292.005 203.036 291.865 202.76 291.609 202.552C291.361 202.344 291.025 202.24 290.601 202.24C290.209 202.24 289.897 202.324 289.665 202.492C289.433 202.66 289.317 202.88 289.317 203.152C289.317 203.368 289.385 203.548 289.521 203.692C289.665 203.828 289.841 203.94 290.049 204.028C290.265 204.108 290.561 204.2 290.937 204.304C291.409 204.432 291.793 204.56 292.089 204.688C292.385 204.808 292.637 204.992 292.845 205.24C293.061 205.488 293.173 205.812 293.181 206.212C293.181 206.572 293.081 206.896 292.881 207.184C292.681 207.472 292.397 207.7 292.029 207.868C291.669 208.028 291.253 208.108 290.781 208.108ZM296.055 202.324V206.2C296.055 206.52 296.123 206.748 296.259 206.884C296.395 207.012 296.631 207.076 296.967 207.076H297.771V208H296.787C296.179 208 295.723 207.86 295.419 207.58C295.115 207.3 294.963 206.84 294.963 206.2V202.324H294.111V201.424H294.963V199.768H296.055V201.424H297.771V202.324H296.055ZM307.645 200.272H303.433V203.008C303.617 202.752 303.889 202.544 304.249 202.384C304.609 202.216 304.997 202.132 305.413 202.132C306.077 202.132 306.617 202.272 307.033 202.552C307.449 202.824 307.745 203.18 307.921 203.62C308.105 204.052 308.197 204.512 308.197 205C308.197 205.576 308.089 206.092 307.873 206.548C307.657 207.004 307.325 207.364 306.877 207.628C306.437 207.892 305.889 208.024 305.233 208.024C304.393 208.024 303.713 207.808 303.193 207.376C302.673 206.944 302.357 206.368 302.245 205.648H303.313C303.417 206.104 303.637 206.46 303.973 206.716C304.309 206.972 304.733 207.1 305.245 207.1C305.877 207.1 306.353 206.912 306.673 206.536C306.993 206.152 307.153 205.648 307.153 205.024C307.153 204.4 306.993 203.92 306.673 203.584C306.353 203.24 305.881 203.068 305.257 203.068C304.833 203.068 304.461 203.172 304.141 203.38C303.829 203.58 303.601 203.856 303.457 204.208H302.425V199.312H307.645V200.272ZM314.12 202.636C314.336 202.26 314.656 201.948 315.08 201.7C315.512 201.444 316.012 201.316 316.58 201.316C317.164 201.316 317.692 201.456 318.164 201.736C318.644 202.016 319.02 202.412 319.292 202.924C319.564 203.428 319.7 204.016 319.7 204.688C319.7 205.352 319.564 205.944 319.292 206.464C319.02 206.984 318.644 207.388 318.164 207.676C317.692 207.964 317.164 208.108 316.58 208.108C316.02 208.108 315.524 207.984 315.092 207.736C314.668 207.48 314.344 207.164 314.12 206.788V211.12H313.028V201.424H314.12V202.636ZM318.584 204.688C318.584 204.192 318.484 203.76 318.284 203.392C318.084 203.024 317.812 202.744 317.468 202.552C317.132 202.36 316.76 202.264 316.352 202.264C315.952 202.264 315.58 202.364 315.236 202.564C314.9 202.756 314.628 203.04 314.42 203.416C314.22 203.784 314.12 204.212 314.12 204.7C314.12 205.196 314.22 205.632 314.42 206.008C314.628 206.376 314.9 206.66 315.236 206.86C315.58 207.052 315.952 207.148 316.352 207.148C316.76 207.148 317.132 207.052 317.468 206.86C317.812 206.66 318.084 206.376 318.284 206.008C318.484 205.632 318.584 205.192 318.584 204.688ZM324.401 201.304C324.897 201.304 325.345 201.412 325.745 201.628C326.145 201.836 326.457 202.152 326.681 202.576C326.913 203 327.029 203.516 327.029 204.124V208H325.949V204.28C325.949 203.624 325.785 203.124 325.457 202.78C325.129 202.428 324.681 202.252 324.113 202.252C323.537 202.252 323.077 202.432 322.733 202.792C322.397 203.152 322.229 203.676 322.229 204.364V208H321.137V199.12H322.229V202.36C322.445 202.024 322.741 201.764 323.117 201.58C323.501 201.396 323.929 201.304 324.401 201.304ZM331.681 208.108C331.065 208.108 330.505 207.968 330.001 207.688C329.505 207.408 329.113 207.012 328.825 206.5C328.545 205.98 328.405 205.38 328.405 204.7C328.405 204.028 328.549 203.436 328.837 202.924C329.133 202.404 329.533 202.008 330.037 201.736C330.541 201.456 331.105 201.316 331.729 201.316C332.353 201.316 332.917 201.456 333.421 201.736C333.925 202.008 334.321 202.4 334.609 202.912C334.905 203.424 335.053 204.02 335.053 204.7C335.053 205.38 334.901 205.98 334.597 206.5C334.301 207.012 333.897 207.408 333.385 207.688C332.873 207.968 332.305 208.108 331.681 208.108ZM331.681 207.148C332.073 207.148 332.441 207.056 332.785 206.872C333.129 206.688 333.405 206.412 333.613 206.044C333.829 205.676 333.937 205.228 333.937 204.7C333.937 204.172 333.833 203.724 333.625 203.356C333.417 202.988 333.145 202.716 332.809 202.54C332.473 202.356 332.109 202.264 331.717 202.264C331.317 202.264 330.949 202.356 330.613 202.54C330.285 202.716 330.021 202.988 329.821 203.356C329.621 203.724 329.521 204.172 329.521 204.7C329.521 205.236 329.617 205.688 329.809 206.056C330.009 206.424 330.273 206.7 330.601 206.884C330.929 207.06 331.289 207.148 331.681 207.148ZM337.82 202.324V206.2C337.82 206.52 337.888 206.748 338.024 206.884C338.16 207.012 338.396 207.076 338.732 207.076H339.536V208H338.552C337.944 208 337.488 207.86 337.184 207.58C336.88 207.3 336.728 206.84 336.728 206.2V202.324H335.876V201.424H336.728V199.768H337.82V201.424H339.536V202.324H337.82ZM343.728 208.108C343.112 208.108 342.552 207.968 342.048 207.688C341.552 207.408 341.16 207.012 340.872 206.5C340.592 205.98 340.452 205.38 340.452 204.7C340.452 204.028 340.596 203.436 340.884 202.924C341.18 202.404 341.58 202.008 342.084 201.736C342.588 201.456 343.152 201.316 343.776 201.316C344.4 201.316 344.964 201.456 345.468 201.736C345.972 202.008 346.368 202.4 346.656 202.912C346.952 203.424 347.1 204.02 347.1 204.7C347.1 205.38 346.948 205.98 346.644 206.5C346.348 207.012 345.944 207.408 345.432 207.688C344.92 207.968 344.352 208.108 343.728 208.108ZM343.728 207.148C344.12 207.148 344.488 207.056 344.832 206.872C345.176 206.688 345.452 206.412 345.66 206.044C345.876 205.676 345.984 205.228 345.984 204.7C345.984 204.172 345.88 203.724 345.672 203.356C345.464 202.988 345.192 202.716 344.856 202.54C344.52 202.356 344.156 202.264 343.764 202.264C343.364 202.264 342.996 202.356 342.66 202.54C342.332 202.716 342.068 202.988 341.868 203.356C341.668 203.724 341.568 204.172 341.568 204.7C341.568 205.236 341.664 205.688 341.856 206.056C342.056 206.424 342.32 206.7 342.648 206.884C342.976 207.06 343.336 207.148 343.728 207.148ZM350.863 208.108C350.359 208.108 349.907 208.024 349.507 207.856C349.107 207.68 348.791 207.44 348.559 207.136C348.327 206.824 348.199 206.468 348.175 206.068H349.303C349.335 206.396 349.487 206.664 349.759 206.872C350.039 207.08 350.403 207.184 350.851 207.184C351.267 207.184 351.595 207.092 351.835 206.908C352.075 206.724 352.195 206.492 352.195 206.212C352.195 205.924 352.067 205.712 351.811 205.576C351.555 205.432 351.159 205.292 350.623 205.156C350.135 205.028 349.735 204.9 349.423 204.772C349.119 204.636 348.855 204.44 348.631 204.184C348.415 203.92 348.307 203.576 348.307 203.152C348.307 202.816 348.407 202.508 348.607 202.228C348.807 201.948 349.091 201.728 349.459 201.568C349.827 201.4 350.247 201.316 350.719 201.316C351.447 201.316 352.035 201.5 352.483 201.868C352.931 202.236 353.171 202.74 353.203 203.38H352.111C352.087 203.036 351.947 202.76 351.691 202.552C351.443 202.344 351.107 202.24 350.683 202.24C350.291 202.24 349.979 202.324 349.747 202.492C349.515 202.66 349.399 202.88 349.399 203.152C349.399 203.368 349.467 203.548 349.603 203.692C349.747 203.828 349.923 203.94 350.131 204.028C350.347 204.108 350.643 204.2 351.019 204.304C351.491 204.432 351.875 204.56 352.171 204.688C352.467 204.808 352.719 204.992 352.927 205.24C353.143 205.488 353.255 205.812 353.263 206.212C353.263 206.572 353.163 206.896 352.963 207.184C352.763 207.472 352.479 207.7 352.111 207.868C351.751 208.028 351.335 208.108 350.863 208.108Z" fill="#28303F" fill-opacity="0.8"/>
<rect x="197.5" y="234" width="165" height="30" rx="15" fill="white"/>
<rect x="198" y="234.5" width="164" height="29" rx="14.5" stroke="#28303F" stroke-opacity="0.1"/>
<path d="M219.594 246.02V250.34C219.594 250.813 219.718 251.177 219.964 251.43C220.211 251.677 220.558 251.8 221.004 251.8C221.458 251.8 221.808 251.677 222.054 251.43C222.301 251.177 222.424 250.813 222.424 250.34V246.02H223.834V250.33C223.834 250.923 223.704 251.427 223.444 251.84C223.191 252.247 222.848 252.553 222.414 252.76C221.988 252.967 221.511 253.07 220.984 253.07C220.464 253.07 219.991 252.967 219.564 252.76C219.144 252.553 218.811 252.247 218.564 251.84C218.318 251.427 218.194 250.923 218.194 250.33V246.02H219.594ZM226.587 248.26C226.767 248.007 227.014 247.797 227.327 247.63C227.647 247.457 228.01 247.37 228.417 247.37C228.89 247.37 229.317 247.487 229.697 247.72C230.084 247.953 230.387 248.287 230.607 248.72C230.834 249.147 230.947 249.643 230.947 250.21C230.947 250.777 230.834 251.28 230.607 251.72C230.387 252.153 230.084 252.49 229.697 252.73C229.317 252.97 228.89 253.09 228.417 253.09C228.01 253.09 227.65 253.007 227.337 252.84C227.03 252.673 226.78 252.463 226.587 252.21V255.64H225.187V247.46H226.587V248.26ZM229.517 250.21C229.517 249.877 229.447 249.59 229.307 249.35C229.174 249.103 228.994 248.917 228.767 248.79C228.547 248.663 228.307 248.6 228.047 248.6C227.794 248.6 227.554 248.667 227.327 248.8C227.107 248.927 226.927 249.113 226.787 249.36C226.654 249.607 226.587 249.897 226.587 250.23C226.587 250.563 226.654 250.853 226.787 251.1C226.927 251.347 227.107 251.537 227.327 251.67C227.554 251.797 227.794 251.86 228.047 251.86C228.307 251.86 228.547 251.793 228.767 251.66C228.994 251.527 229.174 251.337 229.307 251.09C229.447 250.843 229.517 250.55 229.517 250.21ZM233.364 245.6V253H231.964V245.6H233.364ZM237.208 253.09C236.674 253.09 236.194 252.973 235.768 252.74C235.341 252.5 235.004 252.163 234.758 251.73C234.518 251.297 234.398 250.797 234.398 250.23C234.398 249.663 234.521 249.163 234.768 248.73C235.021 248.297 235.364 247.963 235.798 247.73C236.231 247.49 236.714 247.37 237.248 247.37C237.781 247.37 238.264 247.49 238.698 247.73C239.131 247.963 239.471 248.297 239.718 248.73C239.971 249.163 240.098 249.663 240.098 250.23C240.098 250.797 239.968 251.297 239.708 251.73C239.454 252.163 239.108 252.5 238.668 252.74C238.234 252.973 237.748 253.09 237.208 253.09ZM237.208 251.87C237.461 251.87 237.698 251.81 237.918 251.69C238.144 251.563 238.324 251.377 238.458 251.13C238.591 250.883 238.658 250.583 238.658 250.23C238.658 249.703 238.518 249.3 238.238 249.02C237.964 248.733 237.628 248.59 237.228 248.59C236.828 248.59 236.491 248.733 236.218 249.02C235.951 249.3 235.818 249.703 235.818 250.23C235.818 250.757 235.948 251.163 236.208 251.45C236.474 251.73 236.808 251.87 237.208 251.87ZM240.765 250.21C240.765 249.65 240.875 249.153 241.095 248.72C241.321 248.287 241.625 247.953 242.005 247.72C242.391 247.487 242.821 247.37 243.295 247.37C243.708 247.37 244.068 247.453 244.375 247.62C244.688 247.787 244.938 247.997 245.125 248.25V247.46H246.535V253H245.125V252.19C244.945 252.45 244.695 252.667 244.375 252.84C244.061 253.007 243.698 253.09 243.285 253.09C242.818 253.09 242.391 252.97 242.005 252.73C241.625 252.49 241.321 252.153 241.095 251.72C240.875 251.28 240.765 250.777 240.765 250.21ZM245.125 250.23C245.125 249.89 245.058 249.6 244.925 249.36C244.791 249.113 244.611 248.927 244.385 248.8C244.158 248.667 243.915 248.6 243.655 248.6C243.395 248.6 243.155 248.663 242.935 248.79C242.715 248.917 242.535 249.103 242.395 249.35C242.261 249.59 242.195 249.877 242.195 250.21C242.195 250.543 242.261 250.837 242.395 251.09C242.535 251.337 242.715 251.527 242.935 251.66C243.161 251.793 243.401 251.86 243.655 251.86C243.915 251.86 244.158 251.797 244.385 251.67C244.611 251.537 244.791 251.35 244.925 251.11C245.058 250.863 245.125 250.57 245.125 250.23ZM247.542 250.21C247.542 249.65 247.652 249.153 247.872 248.72C248.099 248.287 248.405 247.953 248.792 247.72C249.179 247.487 249.609 247.37 250.082 247.37C250.442 247.37 250.785 247.45 251.112 247.61C251.439 247.763 251.699 247.97 251.892 248.23V245.6H253.312V253H251.892V252.18C251.719 252.453 251.475 252.673 251.162 252.84C250.849 253.007 250.485 253.09 250.072 253.09C249.605 253.09 249.179 252.97 248.792 252.73C248.405 252.49 248.099 252.153 247.872 251.72C247.652 251.28 247.542 250.777 247.542 250.21ZM251.902 250.23C251.902 249.89 251.835 249.6 251.702 249.36C251.569 249.113 251.389 248.927 251.162 248.8C250.935 248.667 250.692 248.6 250.432 248.6C250.172 248.6 249.932 248.663 249.712 248.79C249.492 248.917 249.312 249.103 249.172 249.35C249.039 249.59 248.972 249.877 248.972 250.21C248.972 250.543 249.039 250.837 249.172 251.09C249.312 251.337 249.492 251.527 249.712 251.66C249.939 251.793 250.179 251.86 250.432 251.86C250.692 251.86 250.935 251.797 251.162 251.67C251.389 251.537 251.569 251.35 251.702 251.11C251.835 250.863 251.902 250.57 251.902 250.23ZM259.602 248.61H258.632V253H257.212V248.61H256.582V247.46H257.212V247.18C257.212 246.5 257.405 246 257.792 245.68C258.179 245.36 258.762 245.21 259.542 245.23V246.41C259.202 246.403 258.965 246.46 258.832 246.58C258.699 246.7 258.632 246.917 258.632 247.23V247.46H259.602V248.61ZM261.909 248.32C262.089 248.027 262.323 247.797 262.609 247.63C262.903 247.463 263.236 247.38 263.609 247.38V248.85H263.239C262.799 248.85 262.466 248.953 262.239 249.16C262.019 249.367 261.909 249.727 261.909 250.24V253H260.509V247.46H261.909V248.32ZM267.012 253.09C266.479 253.09 265.999 252.973 265.572 252.74C265.146 252.5 264.809 252.163 264.562 251.73C264.322 251.297 264.202 250.797 264.202 250.23C264.202 249.663 264.326 249.163 264.572 248.73C264.826 248.297 265.169 247.963 265.602 247.73C266.036 247.49 266.519 247.37 267.052 247.37C267.586 247.37 268.069 247.49 268.502 247.73C268.936 247.963 269.276 248.297 269.522 248.73C269.776 249.163 269.902 249.663 269.902 250.23C269.902 250.797 269.772 251.297 269.512 251.73C269.259 252.163 268.912 252.5 268.472 252.74C268.039 252.973 267.552 253.09 267.012 253.09ZM267.012 251.87C267.266 251.87 267.502 251.81 267.722 251.69C267.949 251.563 268.129 251.377 268.262 251.13C268.396 250.883 268.462 250.583 268.462 250.23C268.462 249.703 268.322 249.3 268.042 249.02C267.769 248.733 267.432 248.59 267.032 248.59C266.632 248.59 266.296 248.733 266.022 249.02C265.756 249.3 265.622 249.703 265.622 250.23C265.622 250.757 265.752 251.163 266.012 251.45C266.279 251.73 266.612 251.87 267.012 251.87ZM277.809 247.38C278.489 247.38 279.036 247.59 279.449 248.01C279.869 248.423 280.079 249.003 280.079 249.75V253H278.679V249.94C278.679 249.507 278.569 249.177 278.349 248.95C278.129 248.717 277.829 248.6 277.449 248.6C277.069 248.6 276.766 248.717 276.539 248.95C276.319 249.177 276.209 249.507 276.209 249.94V253H274.809V249.94C274.809 249.507 274.699 249.177 274.479 248.95C274.259 248.717 273.959 248.6 273.579 248.6C273.193 248.6 272.886 248.717 272.659 248.95C272.439 249.177 272.329 249.507 272.329 249.94V253H270.929V247.46H272.329V248.13C272.509 247.897 272.739 247.713 273.019 247.58C273.306 247.447 273.619 247.38 273.959 247.38C274.393 247.38 274.779 247.473 275.119 247.66C275.459 247.84 275.723 248.1 275.909 248.44C276.089 248.12 276.349 247.863 276.689 247.67C277.036 247.477 277.409 247.38 277.809 247.38ZM289.091 247.46L285.661 255.62H284.171L285.371 252.86L283.151 247.46H284.721L286.151 251.33L287.601 247.46H289.091ZM292.305 253.09C291.772 253.09 291.292 252.973 290.865 252.74C290.439 252.5 290.102 252.163 289.855 251.73C289.615 251.297 289.495 250.797 289.495 250.23C289.495 249.663 289.619 249.163 289.865 248.73C290.119 248.297 290.462 247.963 290.895 247.73C291.329 247.49 291.812 247.37 292.345 247.37C292.879 247.37 293.362 247.49 293.795 247.73C294.229 247.963 294.569 248.297 294.815 248.73C295.069 249.163 295.195 249.663 295.195 250.23C295.195 250.797 295.065 251.297 294.805 251.73C294.552 252.163 294.205 252.5 293.765 252.74C293.332 252.973 292.845 253.09 292.305 253.09ZM292.305 251.87C292.559 251.87 292.795 251.81 293.015 251.69C293.242 251.563 293.422 251.377 293.555 251.13C293.689 250.883 293.755 250.583 293.755 250.23C293.755 249.703 293.615 249.3 293.335 249.02C293.062 248.733 292.725 248.59 292.325 248.59C291.925 248.59 291.589 248.733 291.315 249.02C291.049 249.3 290.915 249.703 290.915 250.23C290.915 250.757 291.045 251.163 291.305 251.45C291.572 251.73 291.905 251.87 292.305 251.87ZM301.452 247.46V253H300.042V252.3C299.862 252.54 299.626 252.73 299.332 252.87C299.046 253.003 298.732 253.07 298.392 253.07C297.959 253.07 297.576 252.98 297.242 252.8C296.909 252.613 296.646 252.343 296.452 251.99C296.266 251.63 296.172 251.203 296.172 250.71V247.46H297.572V250.51C297.572 250.95 297.682 251.29 297.902 251.53C298.122 251.763 298.422 251.88 298.802 251.88C299.189 251.88 299.492 251.763 299.712 251.53C299.932 251.29 300.042 250.95 300.042 250.51V247.46H301.452ZM304.234 248.32C304.414 248.027 304.647 247.797 304.934 247.63C305.227 247.463 305.56 247.38 305.934 247.38V248.85H305.564C305.124 248.85 304.79 248.953 304.564 249.16C304.344 249.367 304.234 249.727 304.234 250.24V253H302.834V247.46H304.234V248.32ZM308.899 250.21C308.899 249.65 309.009 249.153 309.229 248.72C309.456 248.287 309.763 247.953 310.149 247.72C310.536 247.487 310.966 247.37 311.439 247.37C311.799 247.37 312.143 247.45 312.469 247.61C312.796 247.763 313.056 247.97 313.249 248.23V245.6H314.669V253H313.249V252.18C313.076 252.453 312.833 252.673 312.519 252.84C312.206 253.007 311.843 253.09 311.429 253.09C310.963 253.09 310.536 252.97 310.149 252.73C309.763 252.49 309.456 252.153 309.229 251.72C309.009 251.28 308.899 250.777 308.899 250.21ZM313.259 250.23C313.259 249.89 313.193 249.6 313.059 249.36C312.926 249.113 312.746 248.927 312.519 248.8C312.293 248.667 312.049 248.6 311.789 248.6C311.529 248.6 311.289 248.663 311.069 248.79C310.849 248.917 310.669 249.103 310.529 249.35C310.396 249.59 310.329 249.877 310.329 250.21C310.329 250.543 310.396 250.837 310.529 251.09C310.669 251.337 310.849 251.527 311.069 251.66C311.296 251.793 311.536 251.86 311.789 251.86C312.049 251.86 312.293 251.797 312.519 251.67C312.746 251.537 312.926 251.35 313.059 251.11C313.193 250.863 313.259 250.57 313.259 250.23ZM321.187 250.11C321.187 250.31 321.173 250.49 321.147 250.65H317.097C317.13 251.05 317.27 251.363 317.517 251.59C317.763 251.817 318.067 251.93 318.427 251.93C318.947 251.93 319.317 251.707 319.537 251.26H321.047C320.887 251.793 320.58 252.233 320.127 252.58C319.673 252.92 319.117 253.09 318.457 253.09C317.923 253.09 317.443 252.973 317.017 252.74C316.597 252.5 316.267 252.163 316.027 251.73C315.793 251.297 315.677 250.797 315.677 250.23C315.677 249.657 315.793 249.153 316.027 248.72C316.26 248.287 316.587 247.953 317.007 247.72C317.427 247.487 317.91 247.37 318.457 247.37C318.983 247.37 319.453 247.483 319.867 247.71C320.287 247.937 320.61 248.26 320.837 248.68C321.07 249.093 321.187 249.57 321.187 250.11ZM319.737 249.71C319.73 249.35 319.6 249.063 319.347 248.85C319.093 248.63 318.783 248.52 318.417 248.52C318.07 248.52 317.777 248.627 317.537 248.84C317.303 249.047 317.16 249.337 317.107 249.71H319.737ZM324.519 251.71L325.919 247.46H327.409L325.359 253H323.659L321.619 247.46H323.119L324.519 251.71ZM328.905 246.8C328.658 246.8 328.452 246.723 328.285 246.57C328.125 246.41 328.045 246.213 328.045 245.98C328.045 245.747 328.125 245.553 328.285 245.4C328.452 245.24 328.658 245.16 328.905 245.16C329.152 245.16 329.355 245.24 329.515 245.4C329.682 245.553 329.765 245.747 329.765 245.98C329.765 246.213 329.682 246.41 329.515 246.57C329.355 246.723 329.152 246.8 328.905 246.8ZM329.595 247.46V253H328.195V247.46H329.595ZM330.618 250.23C330.618 249.657 330.735 249.157 330.968 248.73C331.201 248.297 331.525 247.963 331.938 247.73C332.351 247.49 332.825 247.37 333.358 247.37C334.045 247.37 334.611 247.543 335.058 247.89C335.511 248.23 335.815 248.71 335.968 249.33H334.458C334.378 249.09 334.241 248.903 334.048 248.77C333.861 248.63 333.628 248.56 333.348 248.56C332.948 248.56 332.631 248.707 332.398 249C332.165 249.287 332.048 249.697 332.048 250.23C332.048 250.757 332.165 251.167 332.398 251.46C332.631 251.747 332.948 251.89 333.348 251.89C333.915 251.89 334.285 251.637 334.458 251.13H335.968C335.815 251.73 335.511 252.207 335.058 252.56C334.605 252.913 334.038 253.09 333.358 253.09C332.825 253.09 332.351 252.973 331.938 252.74C331.525 252.5 331.201 252.167 330.968 251.74C330.735 251.307 330.618 250.803 330.618 250.23ZM342.144 250.11C342.144 250.31 342.13 250.49 342.104 250.65H338.054C338.087 251.05 338.227 251.363 338.474 251.59C338.72 251.817 339.024 251.93 339.384 251.93C339.904 251.93 340.274 251.707 340.494 251.26H342.004C341.844 251.793 341.537 252.233 341.084 252.58C340.63 252.92 340.074 253.09 339.414 253.09C338.88 253.09 338.4 252.973 337.974 252.74C337.554 252.5 337.224 252.163 336.984 251.73C336.75 251.297 336.634 250.797 336.634 250.23C336.634 249.657 336.75 249.153 336.984 248.72C337.217 248.287 337.544 247.953 337.964 247.72C338.384 247.487 338.867 247.37 339.414 247.37C339.94 247.37 340.41 247.483 340.824 247.71C341.244 247.937 341.567 248.26 341.794 248.68C342.027 249.093 342.144 249.57 342.144 250.11ZM340.694 249.71C340.687 249.35 340.557 249.063 340.304 248.85C340.05 248.63 339.74 248.52 339.374 248.52C339.027 248.52 338.734 248.627 338.494 248.84C338.26 249.047 338.117 249.337 338.064 249.71H340.694Z" fill="#28303F"/>
</svg>
