<svg width="40" height="40" viewBox="0 0 40 40" fill="none" xmlns="http://www.w3.org/2000/svg">
<rect width="40" height="40" rx="20" fill="#F7F7F7"/>
<path d="M20.1272 9.50001C20.6731 9.49872 21.2009 9.69597 21.6122 10.055L21.7172 10.16L29.9672 18.41C30.3719 18.8134 30.6079 19.3557 30.6274 19.9268C30.6469 20.4978 30.4484 21.0549 30.0722 21.485L29.9672 21.59L21.5897 29.975C21.1863 30.3797 20.644 30.6158 20.0729 30.6353C19.5019 30.6548 18.9448 30.4562 18.5147 30.08L18.4097 29.975L10.1597 21.725C9.77076 21.339 9.53608 20.8243 9.49969 20.2775L9.49219 20.1275V11.75C9.49116 11.1759 9.70959 10.6232 10.1028 10.2049C10.496 9.78662 11.0342 9.53445 11.6072 9.50001H20.1197H20.1272ZM20.1272 11H11.7497C11.5654 10.9987 11.3871 11.0652 11.2488 11.187C11.1105 11.3087 11.0218 11.4771 10.9997 11.66V20.1275C10.9981 20.2923 11.0508 20.4531 11.1497 20.585L11.2247 20.66L19.4747 28.91C19.6037 29.0368 19.7742 29.1127 19.9547 29.1237C20.1353 29.1348 20.3137 29.0802 20.4572 28.97L20.5322 28.91L28.9097 20.525C29.0385 20.3956 29.1157 20.2236 29.1267 20.0413C29.1377 19.8591 29.0819 19.679 28.9697 19.535L28.9097 19.46L20.6597 11.21C20.5418 11.094 20.3889 11.0201 20.2247 11H20.1272ZM14.7497 12.5C15.3464 12.5 15.9187 12.7371 16.3407 13.159C16.7626 13.581 16.9997 14.1533 16.9997 14.75C16.9997 15.3467 16.7626 15.919 16.3407 16.341C15.9187 16.763 15.3464 17 14.7497 17C14.153 17 13.5807 16.763 13.1587 16.341C12.7367 15.919 12.4997 15.3467 12.4997 14.75C12.4997 14.1533 12.7367 13.581 13.1587 13.159C13.5807 12.7371 14.153 12.5 14.7497 12.5ZM14.7497 14C14.5508 14 14.36 14.079 14.2194 14.2197C14.0787 14.3603 13.9997 14.5511 13.9997 14.75C13.9997 14.9489 14.0787 15.1397 14.2194 15.2803C14.36 15.421 14.5508 15.5 14.7497 15.5C14.9486 15.5 15.1394 15.421 15.28 15.2803C15.4207 15.1397 15.4997 14.9489 15.4997 14.75C15.4997 14.5511 15.4207 14.3603 15.28 14.2197C15.1394 14.079 14.9486 14 14.7497 14Z" fill="#222222"/>
</svg>
