<svg width="57" height="56" viewBox="0 0 57 56" fill="none" xmlns="http://www.w3.org/2000/svg">
<rect x="0.333313" width="56" height="56" rx="28" fill="#28303F"/>
<path fill-rule="evenodd" clip-rule="evenodd" d="M32.5759 23.0075C32.9901 23.0075 33.3259 23.3433 33.3259 23.7575L33.3259 29.4143C33.3259 29.8286 32.9901 30.1643 32.5759 30.1643C32.1617 30.1643 31.8259 29.8286 31.8259 29.4143L31.8259 25.5682L24.621 32.7731C24.3281 33.066 23.8532 33.066 23.5603 32.7731C23.2674 32.4802 23.2674 32.0053 23.5603 31.7124L30.7653 24.5075L26.9191 24.5075C26.5049 24.5075 26.1691 24.1717 26.1691 23.7575C26.1691 23.3433 26.5049 23.0075 26.9191 23.0075H32.5759Z" fill="white"/>
</svg>
