<svg width="24" height="25" viewBox="0 0 24 25" fill="none" xmlns="http://www.w3.org/2000/svg">
<g clip-path="url(#clip0_1_228)">
<path fill-rule="evenodd" clip-rule="evenodd" d="M24 12.5C24 16.116 22.4006 19.3585 19.8706 21.5586C17.7637 23.3908 15.0114 24.5 12 24.5C8.98862 24.5 6.23633 23.3908 4.1294 21.5586C1.59942 19.3585 0 16.116 0 12.5C0 5.87258 5.37258 0.5 12 0.5C18.6274 0.5 24 5.87258 24 12.5ZM15.6 8.9C15.6 6.91178 13.9882 5.3 12 5.3C10.0118 5.3 8.4 6.91178 8.4 8.9C8.4 10.8882 10.0118 12.5 12 12.5C13.9882 12.5 15.6 10.8882 15.6 8.9ZM12 14.9C14.0553 14.9 15.4068 16 16.3598 17.2226C17.0709 18.1348 16.8261 19.4729 15.7947 19.9961C14.6549 20.5742 13.3655 20.9 12 20.9C10.6345 20.9 9.34513 20.5742 8.20535 19.9961C7.17386 19.4729 6.92913 18.1348 7.64016 17.2226C8.59315 16 9.94472 14.9 12 14.9Z" fill="#AFAFAF"/>
</g>
<defs>
<clipPath id="clip0_1_228">
<rect width="24" height="24" fill="white" transform="translate(0 0.5)"/>
</clipPath>
</defs>
</svg>
